<?xml version="1.0" encoding="UTF-8" standalone="no"?>
<!-- Created with Inkscape (http://www.inkscape.org/) -->

<svg
   xmlns:dc="http://purl.org/dc/elements/1.1/"
   xmlns:cc="http://creativecommons.org/ns#"
   xmlns:rdf="http://www.w3.org/1999/02/22-rdf-syntax-ns#"
   xmlns:svg="http://www.w3.org/2000/svg"
   xmlns="http://www.w3.org/2000/svg"
   xmlns:sodipodi="http://sodipodi.sourceforge.net/DTD/sodipodi-0.dtd"
   xmlns:inkscape="http://www.inkscape.org/namespaces/inkscape"
   width="64px"
   height="64px"
   id="svg3237"
   version="1.1"
   inkscape:version="0.48.0 r9654"
   sodipodi:docname="car icon.svg">
  <title
     id="title4355">car icon</title>
  <defs
     id="defs3239">
    <inkscape:path-effect
       effect="skeletal"
       id="path-effect4248"
       is_visible="true"
       pattern="M 0,0 0,10 10,5 z"
       copytype="single_stretched"
       prop_scale="1"
       scale_y_rel="false"
       spacing="0"
       normal_offset="0"
       tang_offset="0"
       prop_units="false"
       vertical_pattern="false"
       fuse_tolerance="0" />
    <inkscape:path-effect
       effect="skeletal"
       id="path-effect4252"
       is_visible="true"
       pattern="M 0,0 0,10 10,5 z"
       copytype="single_stretched"
       prop_scale="1"
       scale_y_rel="false"
       spacing="0"
       normal_offset="0"
       tang_offset="0"
       prop_units="false"
       vertical_pattern="false"
       fuse_tolerance="0" />
    <inkscape:path-effect
       effect="skeletal"
       id="path-effect4260"
       is_visible="true"
       pattern="M 0,0 0,10 10,5 z"
       copytype="single_stretched"
       prop_scale="1"
       scale_y_rel="false"
       spacing="0"
       normal_offset="0"
       tang_offset="0"
       prop_units="false"
       vertical_pattern="false"
       fuse_tolerance="0" />
    <inkscape:path-effect
       effect="skeletal"
       id="path-effect4264"
       is_visible="true"
       pattern="M 0,0 0,10 10,5 z"
       copytype="single_stretched"
       prop_scale="1"
       scale_y_rel="false"
       spacing="0"
       normal_offset="0"
       tang_offset="0"
       prop_units="false"
       vertical_pattern="false"
       fuse_tolerance="0" />
    <inkscape:path-effect
       effect="skeletal"
       id="path-effect4268"
       is_visible="true"
       pattern="m -64.649763,16.162441 0,10 10,-5 z"
       copytype="single_stretched"
       prop_scale="1"
       scale_y_rel="false"
       spacing="0"
       normal_offset="0"
       tang_offset="0"
       prop_units="false"
       vertical_pattern="false"
       fuse_tolerance="0" />
    <inkscape:path-effect
       effect="skeletal"
       id="path-effect4272"
       is_visible="true"
       pattern="M 0,0 0,10 10,5 z"
       copytype="single_stretched"
       prop_scale="1"
       scale_y_rel="false"
       spacing="0"
       normal_offset="0"
       tang_offset="0"
       prop_units="false"
       vertical_pattern="false"
       fuse_tolerance="0" />
    <inkscape:path-effect
       effect="skeletal"
       id="path-effect4284"
       is_visible="true"
       pattern="M 0,0 0,10 10,5 z"
       copytype="single_stretched"
       prop_scale="1"
       scale_y_rel="false"
       spacing="0"
       normal_offset="0"
       tang_offset="0"
       prop_units="false"
       vertical_pattern="false"
       fuse_tolerance="0" />
    <inkscape:path-effect
       effect="skeletal"
       id="path-effect4288"
       is_visible="true"
       pattern="M 0,0 0,10 10,5 z"
       copytype="single_stretched"
       prop_scale="1"
       scale_y_rel="false"
       spacing="0"
       normal_offset="0"
       tang_offset="0"
       prop_units="false"
       vertical_pattern="false"
       fuse_tolerance="0" />
    <inkscape:path-effect
       effect="skeletal"
       id="path-effect4292"
       is_visible="true"
       pattern="M 0,0 0,10 10,5 z"
       copytype="single_stretched"
       prop_scale="1"
       scale_y_rel="false"
       spacing="0"
       normal_offset="0"
       tang_offset="0"
       prop_units="false"
       vertical_pattern="false"
       fuse_tolerance="0" />
    <inkscape:path-effect
       effect="skeletal"
       id="path-effect4296"
       is_visible="true"
       pattern="M 0,0 0,10 10,5 z"
       copytype="single_stretched"
       prop_scale="1"
       scale_y_rel="false"
       spacing="0"
       normal_offset="0"
       tang_offset="0"
       prop_units="false"
       vertical_pattern="false"
       fuse_tolerance="0" />
    <inkscape:path-effect
       effect="skeletal"
       id="path-effect4300"
       is_visible="true"
       pattern="M 0,0 0,10 10,5 z"
       copytype="single_stretched"
       prop_scale="1"
       scale_y_rel="false"
       spacing="0"
       normal_offset="0"
       tang_offset="0"
       prop_units="false"
       vertical_pattern="false"
       fuse_tolerance="0" />
    <inkscape:path-effect
       effect="skeletal"
       id="path-effect4304"
       is_visible="true"
       pattern="M 0,0 0,10 10,5 z"
       copytype="single_stretched"
       prop_scale="1"
       scale_y_rel="false"
       spacing="0"
       normal_offset="0"
       tang_offset="0"
       prop_units="false"
       vertical_pattern="false"
       fuse_tolerance="0" />
    <inkscape:path-effect
       effect="skeletal"
       id="path-effect4308"
       is_visible="true"
       pattern="M 0,0 0,10 10,5 z"
       copytype="single_stretched"
       prop_scale="1"
       scale_y_rel="false"
       spacing="0"
       normal_offset="0"
       tang_offset="0"
       prop_units="false"
       vertical_pattern="false"
       fuse_tolerance="0" />
    <inkscape:path-effect
       effect="skeletal"
       id="path-effect4312"
       is_visible="true"
       pattern="M 0,0 0,10 10,5 z"
       copytype="single_stretched"
       prop_scale="1"
       scale_y_rel="false"
       spacing="0"
       normal_offset="0"
       tang_offset="0"
       prop_units="false"
       vertical_pattern="false"
       fuse_tolerance="0" />
    <inkscape:path-effect
       effect="skeletal"
       id="path-effect4316"
       is_visible="true"
       pattern="M 0,0 0,10 10,5 z"
       copytype="single_stretched"
       prop_scale="1"
       scale_y_rel="false"
       spacing="0"
       normal_offset="0"
       tang_offset="0"
       prop_units="false"
       vertical_pattern="false"
       fuse_tolerance="0" />
    <inkscape:path-effect
       effect="skeletal"
       id="path-effect4331"
       is_visible="true"
       pattern="m 145.46197,8.0812204 0,9.9999996 10,-5 z"
       copytype="single_stretched"
       prop_scale="1"
       scale_y_rel="false"
       spacing="0"
       normal_offset="0"
       tang_offset="0"
       prop_units="false"
       vertical_pattern="false"
       fuse_tolerance="0" />
    <inkscape:path-effect
       effect="skeletal"
       id="path-effect4335"
       is_visible="true"
       pattern="M 0,0 0,10 10,5 z"
       copytype="single_stretched"
       prop_scale="1"
       scale_y_rel="false"
       spacing="0"
       normal_offset="0"
       tang_offset="0"
       prop_units="false"
       vertical_pattern="false"
       fuse_tolerance="0" />
    <inkscape:path-effect
       fuse_tolerance="0"
       vertical_pattern="false"
       prop_units="false"
       tang_offset="0"
       normal_offset="0"
       spacing="0"
       scale_y_rel="false"
       prop_scale="1"
       copytype="single_stretched"
       pattern="m 28.284275,8.0812204 0,9.9999996 10,-5 z"
       is_visible="true"
       id="path-effect4339"
       effect="skeletal" />
    <inkscape:path-effect
       effect="skeletal"
       id="path-effect4343"
       is_visible="true"
       pattern="M 0,0 0,10 10,5 z"
       copytype="single_stretched"
       prop_scale="1"
       scale_y_rel="false"
       spacing="0"
       normal_offset="0"
       tang_offset="0"
       prop_units="false"
       vertical_pattern="false"
       fuse_tolerance="0" />
    <inkscape:path-effect
       effect="skeletal"
       id="path-effect4347"
       is_visible="true"
       pattern="M 0,0 0,10 10,5 z"
       copytype="single_stretched"
       prop_scale="1"
       scale_y_rel="false"
       spacing="0"
       normal_offset="0"
       tang_offset="0"
       prop_units="false"
       vertical_pattern="false"
       fuse_tolerance="0" />
    <inkscape:path-effect
       effect="skeletal"
       id="path-effect4351"
       is_visible="true"
       pattern="M 0,0 0,10 10,5 z"
       copytype="single_stretched"
       prop_scale="1"
       scale_y_rel="false"
       spacing="0"
       normal_offset="0"
       tang_offset="0"
       prop_units="false"
       vertical_pattern="false"
       fuse_tolerance="0" />
    <inkscape:path-effect
       effect="skeletal"
       id="path-effect4355"
       is_visible="true"
       pattern="M 0,0 0,10 10,5 z"
       copytype="single_stretched"
       prop_scale="1"
       scale_y_rel="false"
       spacing="0"
       normal_offset="0"
       tang_offset="0"
       prop_units="false"
       vertical_pattern="false"
       fuse_tolerance="0" />
    <inkscape:path-effect
       effect="skeletal"
       id="path-effect4363"
       is_visible="true"
       pattern="M 0,0 0,10 10,5 z"
       copytype="single_stretched"
       prop_scale="1"
       scale_y_rel="false"
       spacing="0"
       normal_offset="0"
       tang_offset="0"
       prop_units="false"
       vertical_pattern="false"
       fuse_tolerance="0" />
    <inkscape:path-effect
       effect="skeletal"
       id="path-effect4367"
       is_visible="true"
       pattern="M 0,0 0,10 10,5 z"
       copytype="single_stretched"
       prop_scale="1"
       scale_y_rel="false"
       spacing="0"
       normal_offset="0"
       tang_offset="0"
       prop_units="false"
       vertical_pattern="false"
       fuse_tolerance="0" />
    <inkscape:path-effect
       effect="skeletal"
       id="path-effect4371"
       is_visible="true"
       pattern="M 0,0 0,10 10,5 z"
       copytype="single_stretched"
       prop_scale="1"
       scale_y_rel="false"
       spacing="0"
       normal_offset="0"
       tang_offset="0"
       prop_units="false"
       vertical_pattern="false"
       fuse_tolerance="0" />
    <filter
       inkscape:collect="always"
       id="filter4188">
      <feGaussianBlur
         inkscape:collect="always"
         stdDeviation="4.1690975"
         id="feGaussianBlur4190" />
    </filter>
  </defs>
  <sodipodi:namedview
     id="base"
     pagecolor="#ffffff"
     bordercolor="#666666"
     borderopacity="1.0"
     inkscape:pageopacity="0.0"
     inkscape:pageshadow="2"
     inkscape:zoom="5.5"
     inkscape:cx="32"
     inkscape:cy="32"
     inkscape:current-layer="layer1"
     showgrid="true"
     inkscape:document-units="px"
     inkscape:grid-bbox="true"
     inkscape:window-width="1280"
     inkscape:window-height="712"
     inkscape:window-x="-4"
     inkscape:window-y="-4"
     inkscape:window-maximized="1" />
  <metadata
     id="metadata3242">
    <rdf:RDF>
      <cc:Work
         rdf:about="">
        <dc:format>image/svg+xml</dc:format>
        <dc:type
           rdf:resource="http://purl.org/dc/dcmitype/StillImage" />
        <dc:title>car icon</dc:title>
        <dc:date>2011-01-22</dc:date>
        <dc:creator>
          <cc:Agent>
            <dc:title>netalloy.com</dc:title>
          </cc:Agent>
        </dc:creator>
        <dc:subject>
          <rdf:Bag>
            <rdf:li>speed</rdf:li>
            <rdf:li>car</rdf:li>
            <rdf:li>race</rdf:li>
            <rdf:li>racing</rdf:li>
            <rdf:li>motor sports</rdf:li>
            <rdf:li>motorsports</rdf:li>
            <rdf:li>car rally</rdf:li>
            <rdf:li>motorcross</rdf:li>
            <rdf:li>automobile</rdf:li>
            <rdf:li>automotive</rdf:li>
          </rdf:Bag>
        </dc:subject>
        <dc:description>motor sports clip art by NetAlloy</dc:description>
        <cc:license
           rdf:resource="http://creativecommons.org/licenses/publicdomain/" />
      </cc:Work>
      <cc:License
         rdf:about="http://creativecommons.org/licenses/publicdomain/">
        <cc:permits
           rdf:resource="http://creativecommons.org/ns#Reproduction" />
        <cc:permits
           rdf:resource="http://creativecommons.org/ns#Distribution" />
        <cc:permits
           rdf:resource="http://creativecommons.org/ns#DerivativeWorks" />
      </cc:License>
    </rdf:RDF>
  </metadata>
  <g
     id="layer1"
     inkscape:label="Layer 1"
     inkscape:groupmode="layer">
    <rect
       style="opacity:0;fill:#ffffff;fill-opacity:1;stroke:#0c0505;stroke-width:0.39639798;stroke-linecap:round;stroke-linejoin:round;stroke-miterlimit:4;stroke-opacity:0.98224852;stroke-dasharray:none;stroke-dashoffset:0"
       id="rect4339"
       width="63.6036"
       height="63.603603"
       x="0.19819899"
       y="0.19819765"
       ry="1.8907529" />
    <g
       id="g4250"
       style="fill:#0e232e"
       transform="translate(-0.16363637,-0.56363757)">
      <g
         style="fill:#0e232e;fill-opacity:1"
         transform="matrix(0.04053745,0,0,0.04053745,25.934838,17.736161)"
         id="g4435">
        <path
           inkscape:connector-curvature="0"
           inkscape:original-d="m -197.9899,523.04225 c -64.64976,0 -129.29952,0 -193.94929,0"
           inkscape:path-effect="#path-effect4248"
           id="path4377"
           d="m -197.9899,528.04225 0,-10 c -64.64976,1.66667 -129.29953,3.33333 -193.94929,5 64.64976,1.66667 129.29953,3.33333 193.94929,5 z"
           style="fill:#0e232e;fill-opacity:1;fill-rule:evenodd;stroke:none" />
        <path
           inkscape:connector-curvature="0"
           inkscape:original-d="m -222.23356,498.79859 c -86.41212,-5.77403 -174.88366,-4.04061 -262.63966,-4.04061"
           inkscape:path-effect="#path-effect4252"
           id="path4379"
           d="m -222.56692,503.78747 0.66672,-9.97776 c -87.78265,-4.1873 -175.39731,-0.7184 -262.97302,0.94827 87.57571,1.66667 175.32725,1.53927 262.3063,9.02949 z"
           style="fill:#0e232e;fill-opacity:1;fill-rule:evenodd;stroke:none" />
        <path
           inkscape:connector-curvature="0"
           inkscape:original-d="m -242.43661,466.47371 c -96.97464,0 -193.94929,0 -290.92393,0"
           inkscape:path-effect="#path-effect4260"
           id="path4381"
           d="m -242.43661,471.47371 0,-10 c -96.97464,1.66667 -193.94929,3.33333 -290.92393,5 96.97464,1.66667 193.94929,3.33333 290.92393,5 z"
           style="fill:#0e232e;fill-opacity:1;fill-rule:evenodd;stroke:none" />
        <path
           inkscape:connector-curvature="0"
           inkscape:original-d="m -60.609153,405.86455 c -80.865887,8.08659 -185.301447,9.77559 -270.720877,-4.04061 40.68444,-9.43382 82.77925,-37.34901 113.13708,-52.52793"
           inkscape:path-effect="#path-effect4264"
           id="path4383"
           d="m -60.111634,410.83974 -0.995038,-9.95038 c -44.161788,4.98165 -88.627398,7.57242 -133.134578,7.85626 0,0 -1e-5,0 -1e-5,0 -45.71416,1.3698 -91.52624,-0.14406 -136.78466,-6.93195 10e-6,0 10e-6,0 2e-5,0 21.35602,-4.45455 41.27519,-13.41185 60.48423,-23.42901 17.63259,-9.42111 34.61037,-19.93812 52.34872,-29.08865 -17.96343,8.70037 -35.23612,18.80383 -53.04341,27.7481 -19.40703,9.99418 -39.38476,19.4202 -60.39778,24.7901 45.2858,7.85722 91.34634,11.59103 137.35135,13.53575 0,0 1e-5,0 2e-5,1e-5 44.72904,0.8432 89.53781,-0.63237 134.171136,-4.53023 z"
           style="fill:#0e232e;fill-opacity:1;fill-rule:evenodd;stroke:none" />
        <path
           inkscape:connector-curvature="0"
           inkscape:original-d="m -262.63966,365.45845 c 223.550652,5.34482 450.85805,-4.22842 670.74129,20.20305"
           inkscape:path-effect="#path-effect4268"
           id="path4385"
           d="m -262.52015,360.45988 -0.23902,9.99714 c 112.35383,1.84891 224.614834,-0.055 336.835941,0.43715 C 185.57099,371.3853 297.16552,374.171 408.10163,385.6615 297.34898,372.51992 185.67893,368.05966 74.135758,365.91079 -38.136484,363.74574 -150.42904,363.97717 -262.52015,360.45988 z"
           style="fill:#0e232e;fill-opacity:1;fill-rule:evenodd;stroke:none" />
        <path
           sodipodi:nodetypes="ccc"
           inkscape:connector-curvature="0"
           inkscape:original-d="m -262.63966,361.41784 c 146.80884,-90.77 293.617673,-106.50001 440.42651,-101.01525 92.84676,-4.0723 150.12217,77.59771 197.9899,141.42135"
           inkscape:path-effect="#path-effect4272"
           id="path4387"
           d="m -265.26909,357.16507 5.25886,8.50554 c 66.64798,-41.86417 140.94711,-71.65671 218.233659,-87.58723 1.2e-5,0 2.4e-5,-10e-6 3.5e-5,-10e-6 71.911929,-14.82664 145.955356,-18.12742 219.569166,-15.89969 21.37847,-1.09007 43.01306,2.65581 62.85285,10.8461 1e-5,10e-6 3e-5,10e-6 4e-5,2e-5 19.16013,7.90927 36.63087,19.69233 52.41907,33.29111 16.15694,13.91896 30.64622,29.73091 44.29943,46.18511 13.30026,16.02966 25.78994,32.73098 38.41273,49.31792 -12.38908,-16.76222 -24.64191,-33.63504 -37.73436,-49.87278 -13.43816,-16.66736 -27.74671,-32.72808 -43.8091,-46.9675 -15.69677,-13.91777 -33.18453,-26.06993 -52.55661,-34.40051 0,0 -1e-5,0 -1e-5,0 -20.05082,-8.62207 -42.02689,-12.76842 -63.8956,-11.96165 -73.74754,-3.27768 -148.135562,-1.00275 -220.857272,12.92447 -1.2e-5,10e-6 -2.3e-5,10e-6 -3.5e-5,10e-6 -78.285863,14.99804 -153.928433,44.06867 -222.192853,85.61909 z"
           style="fill:#0e232e;fill-opacity:1;fill-rule:evenodd;stroke:none" />
        <path
           sodipodi:nodetypes="cc"
           inkscape:connector-curvature="0"
           inkscape:original-d="M 440.23997,357.68679 C 382.14246,320.46551 314.60587,283.1375 238.396,264.4432"
           inkscape:path-effect="#path-effect4284"
           id="path4389"
           d="m 437.5427,361.89687 5.39454,-8.42016 C 379.12781,314.52839 311.10654,280.56304 238.396,264.4432 c 71.91642,19.35719 137.56768,56.06949 199.1467,97.45367 z"
           style="fill:#0e232e;fill-opacity:1;fill-rule:evenodd;stroke:none" />
        <path
           inkscape:connector-curvature="0"
           inkscape:original-d="m 444.46712,377.58028 c -1.67891,-1.07565 -47.97981,17.73271 -80.8122,32.32488 C 342.59742,342.90235 284.10756,296.99447 238.396,256.36198"
           inkscape:path-effect="#path-effect4288"
           id="path4391"
           d="m 441.76981,381.79033 5.39462,-8.4201 c -2.09379,-0.87143 -3.15234,-1.12538 -3.14615,-0.82554 -0.61869,0.0384 -1.04889,0.0986 -1.29186,0.16063 -0.90712,0.1886 -1.65934,0.40764 -2.26881,0.60553 -2.22906,0.69949 -4.33479,1.48885 -6.35463,2.26124 -10e-6,0 -10e-6,0 -10e-6,0 -6.77793,2.58319 -13.4285,5.35998 -20.02726,8.14899 0,0 -1e-5,0 -1e-5,1e-5 -16.40506,7.8168 -32.89895,15.83812 -49.46555,24.06803 0,0 0,0 -10e-6,0 -4.56265,-16.21492 -11.76736,-31.56752 -20.79823,-45.82091 0,0 0,0 0,0 -9.49271,-14.32914 -20.50212,-27.52567 -32.28693,-39.87901 -22.7089,-23.80145 -48.27885,-44.39879 -73.12898,-65.72722 24.0948,22.17817 48.9584,43.67695 70.62049,68.03822 11.24514,12.64464 21.6433,26.02567 30.42713,40.35392 0,0 0,10e-6 0,10e-6 9.48197,14.77453 17.49629,30.63701 23.25608,47.26707 0,-1e-5 10e-6,-1e-5 10e-6,-1e-5 17.89108,-7.08461 36.13353,-13.75193 54.71174,-20.0077 0,0 10e-6,0 10e-6,-10e-6 6.66945,-2.54833 13.31186,-5.05612 19.98353,-7.33511 0,0 10e-6,-10e-6 10e-6,-10e-6 2.02413,-0.68955 3.97076,-1.34807 5.86605,-1.86541 0.56857,-0.14966 0.99956,-0.26946 1.29972,-0.30682 0.11222,-0.004 0.04,-0.004 -0.21752,0.0231 0.20158,0.29348 -0.64425,0.0271 -2.57344,-0.73889 z"
           style="fill:#0e232e;fill-opacity:1;fill-rule:evenodd;stroke:none" />
        <path
           inkscape:connector-curvature="0"
           inkscape:original-d="m 492.95444,539.20469 c -173.74624,0 -347.49247,0 -521.238711,0"
           inkscape:path-effect="#path-effect4292"
           id="path4393"
           d="m 492.95444,544.20469 0,-10 c -173.74624,1.66667 -347.49247,3.33333 -521.238711,5 173.746241,1.66667 347.492471,3.33333 521.238711,5 z"
           style="fill:#0e232e;fill-opacity:1;fill-rule:evenodd;stroke:none" />
        <path
           inkscape:connector-curvature="0"
           inkscape:original-d="m -336.71049,409.36138 c 6.72225,-24.99909 4.70139,-51.13993 4.70139,-77.05657 -26.27062,-16.32382 -36.59737,-34.36582 -51.71532,-49.53637 2e-5,-12.84277 0,-25.68553 0,-38.52829"
           inkscape:path-effect="#path-effect4296"
           id="path4395"
           d="m -341.53897,408.063 9.65696,2.59676 c 3.13526,-13.06467 4.03323,-26.33516 4.0151,-39.37941 -0.31965,-13.69774 -1.40213,-27.07236 -1.89708,-40.22373 -11.38221,-7.02376 -21.71673,-15.6526 -30.89105,-25.23225 0,0 0,0 0,0 -7.39551,-7.50541 -14.26812,-15.8806 -22.19377,-23.41773 -0.24202,-12.60156 -0.53391,-25.32373 -0.87561,-38.16649 -0.3417,12.84276 -0.63355,25.80613 -0.87561,38.89009 7.41325,7.85514 13.85663,16.75178 21.15704,25.25368 0,0 0,0 0,0 8.56251,9.73992 18.29453,18.35088 29.18878,25.16908 0,0 0,0 0,10e-6 -0.49495,12.76529 -0.56418,25.31082 -1.55678,37.52099 -0.68608,12.67072 -2.18344,25.21245 -5.72798,36.989 z"
           style="fill:#0e232e;fill-opacity:1;fill-rule:evenodd;stroke:none" />
        <path
           inkscape:connector-curvature="0"
           inkscape:original-d="m -404.06102,264.4432 c 37.22705,16.54535 76.3591,32.62815 117.1777,48.48732 21.05163,-3.77404 34.48221,-28.21272 44.44671,-36.36549 -49.6185,-19.08289 -107.68267,-12.12183 -161.62441,-12.12183 z"
           inkscape:path-effect="#path-effect4300"
           id="path4397"
           d="m -402.03033,259.87414 -4.06138,9.13812 c 39.4183,16.69891 79.13091,32.19585 118.91311,46.96566 6.00786,-1.09364 11.52856,-3.55389 16.37099,-6.72592 4.59303,-3.20007 8.60894,-7.00446 12.27972,-10.98284 0,-10e-6 0,-10e-6 0,-10e-6 3.46629,-3.74889 6.63922,-7.65855 9.81182,-11.48147 2.44184,-3.77255 4.73262,-7.44307 7.44068,-10.4092 -25.79222,-10.4115 -53.30506,-13.6397 -80.32441,-14.21309 -10e-6,0 -10e-6,0 -2e-5,0 -27.55273,-0.25123 -54.97862,1.88349 -82.4612,2.27781 27.48258,0.39432 55.00837,-0.95214 82.40564,0.0875 0,0 10e-6,0 2e-5,0 26.75824,0.68993 53.64244,3.32307 78.05753,12.22091 -3.42289,2.0501 -6.22996,4.52392 -8.93569,6.77247 -3.30866,3.75817 -6.53282,7.51089 -9.94316,10.98638 0,0 0,1e-5 -1e-5,1e-5 -3.63114,3.6928 -7.44407,7.12335 -11.63295,9.843 -3.88483,2.71086 -8.12652,4.76608 -12.4784,5.52968 -39.02861,-15.85039 -77.59761,-32.36879 -115.44229,-50.00898 z"
           style="fill:#0e232e;fill-opacity:1;fill-rule:evenodd;stroke:none" />
        <path
           inkscape:connector-curvature="0"
           inkscape:original-d="m -294.96454,381.62089 c -19.30059,-28.3202 -16.16244,-52.86847 -16.16244,-88.89342"
           inkscape:path-effect="#path-effect4304"
           id="path4399"
           d="m -299.09626,384.43671 8.26344,-5.63164 c -4.52733,-5.90195 -8.40963,-12.32059 -11.28346,-19.19808 0,0 0,0 0,0 -2.63049,-6.26465 -4.43253,-12.96998 -5.61316,-19.83676 0,0 0,0 0,0 -2.63412,-15.29075 -2.5406,-31.25179 -3.39754,-47.04276 -0.85694,15.79097 -2.67869,31.54414 -1.71054,47.62922 0,0 0,0 0,10e-6 0.44256,7.27125 1.57728,14.58288 3.68908,21.73574 0,0 0,0 0,0 2.32839,7.84129 5.7879,15.3461 10.05218,22.34427 z"
           style="fill:#0e232e;fill-opacity:1;fill-rule:evenodd;stroke:none" />
        <path
           inkscape:connector-curvature="0"
           inkscape:original-d="m -359.61431,442.23005 c 1.01237,-28.33619 16.63099,-38.93244 28.28428,-52.52794 90.77987,-2.35261 178.49505,-4.04061 270.720877,-4.04061 49.277151,50.77763 107.998523,99.82396 161.624403,133.34014 128.0726,12.43452 258.68831,8.08122 387.89858,8.08122"
           inkscape:path-effect="#path-effect4308"
           id="path4401"
           d="m -364.61112,442.05153 9.99362,0.35704 c 0.18691,-5.7959 1.03042,-11.51494 2.84365,-16.83204 1.46563,-4.3571 3.61931,-8.52536 6.26673,-12.38723 10e-6,0 10e-6,-10e-6 10e-6,-10e-6 4.15286,-6.71317 10.36144,-12.57385 16.01037,-19.63351 88.88101,-2.70241 178.1249,-4.78057 267.734059,-5.16754 1.6e-5,0 3.1e-5,0 4.7e-5,0 24.802506,25.55599 51.080428,49.74565 78.654685,72.4463 26.603948,21.69302 54.288394,42.09711 83.469549,60.08974 2e-5,1e-5 3e-5,2e-5 4e-5,3e-5 64.64317,5.98081 129.48132,7.68307 194.16876,7.8255 64.81028,0.11763 129.59069,-1.31874 194.38343,-1.66695 -64.79274,-0.34821 -129.59654,0.39174 -194.36841,-0.42228 -64.49849,-0.78637 -128.93507,-3.07818 -192.87656,-9.58161 -28.569903,-18.10179 -55.557961,-38.57272 -81.416361,-60.30428 -27.8115493,-23.14376 -54.439284,-47.79986 -79.708171,-73.83993 -1.5e-5,0 -3.1e-5,0 -4.6e-5,0 -90.896742,-0.38697 -182.143292,0.93975 -273.707602,2.91368 -6.31228,6.89508 -13.91309,13.46314 -20.25456,21.83886 -10e-6,1e-5 -2e-5,3e-5 -3e-5,4e-5 -3.16434,4.49437 -5.77078,9.43021 -7.62133,14.69632 -2.2263,6.40523 -3.3161,13.07286 -3.57188,19.66787 z"
           style="fill:#0e232e;fill-opacity:1;fill-rule:evenodd;stroke:none" />
        <path
           inkscape:connector-curvature="0"
           inkscape:original-d="M 408.10163,527.08286 C 410.27723,471.76992 377.93956,421.1831 347.49248,385.6615"
           inkscape:path-effect="#path-effect4312"
           id="path4403"
           d="m 403.10549,526.88635 9.99228,0.39302 c 0.18736,-28.05705 -8.19222,-55.19081 -20.88196,-79.38677 -11.95767,-22.82666 -27.52121,-43.40548 -44.72333,-62.2311 15.97323,19.87896 30.09926,41.28976 40.35283,64.34676 10.84208,24.41573 17.19544,50.96907 15.26018,76.87809 z"
           style="fill:#0e232e;fill-opacity:1;fill-rule:evenodd;stroke:none" />
        <path
           inkscape:connector-curvature="0"
           inkscape:original-d="M 816.20326,470.51432 C 713.01965,377.28596 561.79723,365.45845 420.22346,365.45845"
           inkscape:path-effect="#path-effect4316"
           id="path4405"
           d="m 812.85123,474.22429 6.70406,-7.41994 c -26.03641,-22.96362 -55.75361,-41.42071 -87.26624,-55.46793 -31.76787,-14.15899 -65.23639,-23.98136 -99.14753,-30.80059 -34.90241,-7.02052 -70.30831,-10.92592 -105.73835,-13.04727 -1e-5,0 -2e-5,0 -2e-5,0 -35.70271,-2.13828 -71.45895,-2.45608 -107.17969,-2.03011 35.72074,0.42597 71.44148,1.59657 106.99648,4.57937 0,0 1e-5,0 1e-5,0 35.28409,2.96067 70.42779,7.68882 104.85787,15.47785 0,0 10e-6,10e-6 2e-5,10e-6 33.44797,7.56879 66.24881,18.05044 97.05239,32.68515 30.53861,14.50709 59.07476,33.19435 83.721,56.02346 z"
           style="fill:#0e232e;fill-opacity:1;fill-rule:evenodd;stroke:none" />
        <path
           inkscape:connector-curvature="0"
           style="fill:#0e232e;fill-opacity:1;stroke:#493939;stroke-width:0.41975617;stroke-linecap:round;stroke-linejoin:round;stroke-miterlimit:4;stroke-opacity:1;stroke-dasharray:none;stroke-dashoffset:0"
           d="m -135.00624,575.65346 c -54.03822,0 -97.84743,-41.18797 -97.84743,-91.9929 0,-20.29279 6.99458,-39.03771 18.83291,-54.24959 -4.53805,10.60439 -7.05549,22.18423 -7.05549,34.31522 0,50.80493 43.80921,91.99291 97.84737,91.99291 32.453998,0 61.214476,-14.87082 79.014535,-37.74332 -14.46761,33.80708 -49.656767,57.67768 -90.791895,57.67768 z"
           id="path4409" />
        <path
           id="path4413"
           d="m 572.83769,584.37069 c 52.19692,13.98612 105.1736,-14.45974 118.32288,-63.53354 5.25216,-19.60133 3.34746,-39.51786 -4.15037,-57.27539 1.6388,11.41758 1.07338,23.25441 -2.06635,34.97205 -13.14928,49.07379 -66.12597,77.51967 -118.32282,63.53356 -31.34816,-8.39971 -55.2798,-30.20758 -66.55349,-56.90771 5.22472,36.39962 33.03667,68.56448 72.77015,79.21103 z"
           style="fill:#0e232e;fill-opacity:1;stroke:#493939;stroke-width:0.41975617;stroke-linecap:round;stroke-linejoin:round;stroke-miterlimit:4;stroke-opacity:1;stroke-dasharray:none;stroke-dashoffset:0"
           inkscape:connector-curvature="0" />
        <path
           sodipodi:nodetypes="cc"
           inkscape:connector-curvature="0"
           inkscape:original-d="m 173.74624,365.45845 c 40.9126,-33.63127 -26.60233,-56.85829 -52.52793,-84.85281"
           inkscape:path-effect="#path-effect4331"
           id="path4415"
           d="m 170.57116,361.59595 6.35016,7.725 c 4.33377,-3.77257 8.47197,-8.37241 11.21521,-14.03401 2.03209,-4.23723 2.85773,-9.08324 2.10018,-13.84488 -0.84635,-4.66818 -2.96146,-8.72828 -5.55381,-12.12322 -3.03729,-4.02643 -6.61689,-7.4035 -10.29934,-10.44087 0,0 0,0 0,0 -8.72333,-7.21424 -18.22833,-13.02754 -27.48297,-19.03579 -9.00766,-5.86311 -18.05743,-11.6669 -25.68228,-19.23654 6.96311,8.18247 15.6258,14.86163 24.11409,21.44154 8.75364,6.79915 17.67796,13.33963 25.37723,20.91137 0,0 1e-5,0 1e-5,0 3.23774,3.19318 6.23515,6.51207 8.48965,10.14759 0,0 0,0 1e-5,1e-5 1.85998,3.05156 3.26187,6.25187 3.45307,9.34926 0.2794,2.9993 -0.62993,6.14772 -2.19105,8.86724 -2.21421,3.93644 -5.87883,7.18597 -9.89016,10.2733 z"
           style="fill:#0e232e;fill-opacity:1;fill-rule:evenodd;stroke:none" />
        <path
           inkscape:connector-curvature="0"
           inkscape:original-d="M 4.0406102,288.68686 C 76.210967,287.07364 147.26554,280.60564 218.19295,280.60564"
           inkscape:path-effect="#path-effect4335"
           id="path4417"
           d="m 3.9288734,283.68811 0.2234736,9.9975 c 71.614378,-3.26913 142.599213,-11.4133 214.040603,-13.07997 -71.44139,-1.66667 -143.031354,3.15855 -214.2640766,3.08247 z"
           style="fill:#0e232e;fill-opacity:1;fill-rule:evenodd;stroke:none" />
        <path
           sodipodi:nodetypes="cc"
           style="fill:#0e232e;fill-opacity:1;fill-rule:evenodd;stroke:none"
           d="m 51.616532,364.76739 9.904026,1.38212 c 0.784574,-8.10676 0.863024,-16.46917 -0.552924,-24.70318 -1.363324,-7.82902 -4.224,-15.32498 -8.4017,-21.95155 0,0 -10e-7,0 -10e-7,0 -4.92435,-7.76487 -11.362977,-14.22977 -18.307075,-19.78913 -10e-7,0 -3e-6,0 -4e-6,0 -9.386996,-7.52377 -19.694789,-13.60247 -30.2182392,-19.10001 9.9692242,6.44829 19.6195412,13.42815 28.0367002,21.57808 1e-6,0 2e-6,0 2e-6,0 6.209697,6.02044 11.736966,12.70513 15.503634,20.15803 3.200637,6.29272 5.089691,13.18424 5.640151,20.10939 0.606718,7.35957 -0.215866,14.84971 -1.60457,22.31625 z"
           id="path4419"
           inkscape:path-effect="#path-effect4339"
           inkscape:original-d="M 56.568545,365.45845 C 61.261839,331.82718 52.064286,308.60016 4.0406149,280.60564"
           inkscape:connector-curvature="0" />
        <path
           inkscape:connector-curvature="0"
           inkscape:original-d="m 814.55028,470.26098 c 8.56344,21.37895 19.32277,53.35346 13.33095,83.20301 -55.92822,11.77473 -116.35077,5.24497 -173.30238,9.98436"
           inkscape:path-effect="#path-effect4343"
           id="path4421"
           d="m 819.19178,468.40181 -9.283,3.71834 c 5.16835,12.23117 9.70626,24.65844 12.63265,37.43022 3.79259,13.73315 5.61842,28.07207 3.35116,41.94358 0,0 0,0 0,10e-6 -27.16614,5.78821 -55.64955,7.14927 -84.30359,7.9212 0,0 -1e-5,0 -1e-5,0 -28.98253,0.9867 -58.12743,1.06788 -87.01014,4.03319 28.97556,-1.84953 57.99039,-0.80332 87.05978,-0.67466 0,0 10e-6,0 10e-6,0 29.16749,-0.0827 58.81002,-1.21438 88.23123,-7.33967 0,0 0,-1e-5 0,-1e-5 3.65018,-15.60747 3.29961,-31.91533 0.93666,-47.61236 -2.58001,-13.55475 -6.78215,-26.68327 -11.61475,-39.41984 z"
           style="fill:#0e232e;fill-opacity:1;fill-rule:evenodd;stroke:none" />
        <path
           inkscape:connector-curvature="0"
           inkscape:original-d="M 496.99505,559.40774 C 308.67106,543.35217 110.88988,551.32652 -80.812204,551.32652"
           inkscape:path-effect="#path-effect4347"
           id="path4423"
           d="m 496.57032,564.38967 0.84946,-9.96386 c -95.90762,-7.33997 -192.06159,-8.40766 -288.06123,-7.58937 -96.76101,0.82343 -193.444574,3.65346 -290.170754,4.49008 96.72618,0.83662 193.478714,-0.32046 290.170064,0.52962 95.93375,0.84474 191.88044,3.56936 287.21246,12.53353 z"
           style="fill:#0e232e;fill-opacity:1;fill-rule:evenodd;stroke:none" />
        <path
           inkscape:connector-curvature="0"
           inkscape:original-d="m -234.35539,535.16408 c -82.03356,-9.59356 -166.53838,-8.08122 -250.51783,-8.08122"
           inkscape:path-effect="#path-effect4351"
           id="path4425"
           d="m -234.93617,540.13024 1.16156,-9.93232 c -83.6813,-8.08905 -167.49717,-4.78173 -251.09861,-3.11506 83.60144,1.66667 167.54725,1.71495 249.93705,13.04738 z"
           style="fill:#0e232e;fill-opacity:1;fill-rule:evenodd;stroke:none" />
        <path
           inkscape:connector-curvature="0"
           inkscape:original-d="M 694.98495,615.97628 C 305.43158,588.46492 -88.476885,595.77323 -480.83261,595.77323"
           inkscape:path-effect="#path-effect4355"
           id="path4427"
           d="m 694.63271,620.96386 0.70448,-9.97516 C 499.8459,598.01834 303.94661,593.83014 108.14762,593.05457 c -196.350328,-0.77827 -392.65939,1.88416 -588.98023,2.71866 196.32084,0.8345 392.660982,-0.15884 588.9391,2.28819 195.72717,2.44068 391.45092,8.28988 586.52622,22.90244 z"
           style="fill:#0e232e;fill-opacity:1;fill-rule:evenodd;stroke:none" />
        <path
           inkscape:connector-curvature="0"
           inkscape:original-d="m -226.27417,551.32652 c -59.34314,-11.13503 -99.46169,-51.80338 -133.34014,-96.97464"
           inkscape:path-effect="#path-effect4363"
           id="path4429"
           d="m -227.19627,556.24076 1.8442,-9.82848 c -27.1135,-4.20313 -53.14944,-16.02462 -75.59709,-32.75568 -22.2044,-16.54353 -41.20577,-37.40582 -58.66515,-59.30472 16.13433,22.89269 33.92213,44.93783 55.57648,63.19709 21.95935,18.5068 48.23802,32.44028 76.84156,38.69179 z"
           style="fill:#0e232e;fill-opacity:1;fill-rule:evenodd;stroke:none" />
        <path
           inkscape:connector-curvature="0"
           inkscape:original-d="m -44.446712,393.74272 c 42.5563223,5.55443 56.476496,44.17058 68.690373,80.81221"
           inkscape:path-effect="#path-effect4367"
           id="path4431"
           d="m -43.799603,388.78477 -1.294218,9.9159 c 8.944641,0.75224 17.827671,3.30592 25.557657,7.95487 7.193956,4.2823 13.4584689,10.36601 18.73277186,17.27455 5.52381084,7.24338 10.00054904,15.39469 13.95778914,23.81535 1e-6,0 2e-6,0 2e-6,0 4.095948,8.72177 7.620114,17.75861 11.089262,26.80949 -2.655211,-9.32219 -5.367052,-18.64024 -8.712973,-27.79852 -10e-7,0 -10e-7,-1e-5 -2e-6,-1e-5 -3.227714,-8.84212 -7.060199,-17.56975 -12.1735109,-25.70424 -4.8936794,-7.7911 -11.0871913,-14.97307 -18.7769501,-20.58735 -8.345404,-6.04001 -18.182112,-9.93383 -28.379828,-11.68004 z"
           style="fill:#0e232e;fill-opacity:1;fill-rule:evenodd;stroke:none" />
        <path
           inkscape:connector-curvature="0"
           inkscape:original-d="M 16.162441,397.78333 C 61.763233,406.492 100.41916,451.8845 125.25892,470.51432"
           inkscape:path-effect="#path-effect4371"
           id="path4433"
           d="m 17.100372,392.87209 -1.875862,9.82248 c 10.949964,1.61529 21.70781,5.57399 31.950043,10.72047 10e-7,0 2e-6,0 3e-6,0 10.427627,5.25038 20.320269,11.77231 29.871624,18.82692 2e-6,0 4e-6,0 6e-6,0 9.015728,6.66158 17.712711,13.84273 26.401974,21.05254 7.11598,5.90623 14.201,11.94832 21.81076,17.21982 -7.19138,-5.82935 -13.74842,-12.34191 -20.41521,-18.77821 -8.123753,-7.84631 -16.285409,-15.68976 -24.89775,-23.12127 -2e-6,-1e-5 -4e-6,-1e-5 -5e-6,-1e-5 -9.114082,-7.86783 -18.73398,-15.30232 -29.213485,-21.62647 -2e-6,0 -4e-6,0 -6e-6,0 -10.294784,-6.22314 -21.52458,-11.32813 -33.632092,-14.11627 z"
           style="fill:#0e232e;fill-opacity:1;fill-rule:evenodd;stroke:none" />
        <path
           inkscape:connector-curvature="0"
           style="fill:#0e232e;fill-opacity:1;stroke:#493939;stroke-width:0.41975617;stroke-linecap:round;stroke-linejoin:round;stroke-miterlimit:4;stroke-opacity:1;stroke-dasharray:none;stroke-dashoffset:0"
           d="m 572.83769,584.37069 c 52.19692,13.98612 105.1736,-14.45974 118.32288,-63.53354 5.25216,-19.60133 3.34746,-39.51786 -4.15037,-57.27539 1.6388,11.41758 1.07338,23.25441 -2.06635,34.97205 -13.14928,49.07379 -66.12597,77.51967 -118.32282,63.53356 -31.34816,-8.39971 -55.2798,-30.20758 -66.55349,-56.90771 5.22472,36.39962 33.03667,68.56448 72.77015,79.21103 z"
           id="path4918" />
      </g>
      <g
         id="g3358"
         transform="matrix(0.04053745,0,0,0.04053745,26.116656,17.554343)"
         style="fill:#0e232e;fill-opacity:1;filter:url(#filter4188)">
        <path
           style="fill:#0e232e;fill-opacity:1;fill-rule:evenodd;stroke:none"
           d="m -197.9899,528.04225 0,-10 c -64.64976,1.66667 -129.29953,3.33333 -193.94929,5 64.64976,1.66667 129.29953,3.33333 193.94929,5 z"
           id="path3360"
           inkscape:path-effect="#path-effect4248"
           inkscape:original-d="m -197.9899,523.04225 c -64.64976,0 -129.29952,0 -193.94929,0"
           inkscape:connector-curvature="0" />
        <path
           style="fill:#0e232e;fill-opacity:1;fill-rule:evenodd;stroke:none"
           d="m -222.56692,503.78747 0.66672,-9.97776 c -87.78265,-4.1873 -175.39731,-0.7184 -262.97302,0.94827 87.57571,1.66667 175.32725,1.53927 262.3063,9.02949 z"
           id="path3362"
           inkscape:path-effect="#path-effect4252"
           inkscape:original-d="m -222.23356,498.79859 c -86.41212,-5.77403 -174.88366,-4.04061 -262.63966,-4.04061"
           inkscape:connector-curvature="0" />
        <path
           style="fill:#0e232e;fill-opacity:1;fill-rule:evenodd;stroke:none"
           d="m -242.43661,471.47371 0,-10 c -96.97464,1.66667 -193.94929,3.33333 -290.92393,5 96.97464,1.66667 193.94929,3.33333 290.92393,5 z"
           id="path3364"
           inkscape:path-effect="#path-effect4260"
           inkscape:original-d="m -242.43661,466.47371 c -96.97464,0 -193.94929,0 -290.92393,0"
           inkscape:connector-curvature="0" />
        <path
           style="fill:#0e232e;fill-opacity:1;fill-rule:evenodd;stroke:none"
           d="m -60.111634,410.83974 -0.995038,-9.95038 c -44.161788,4.98165 -88.627398,7.57242 -133.134578,7.85626 0,0 -1e-5,0 -1e-5,0 -45.71416,1.3698 -91.52624,-0.14406 -136.78466,-6.93195 10e-6,0 10e-6,0 2e-5,0 21.35602,-4.45455 41.27519,-13.41185 60.48423,-23.42901 17.63259,-9.42111 34.61037,-19.93812 52.34872,-29.08865 -17.96343,8.70037 -35.23612,18.80383 -53.04341,27.7481 -19.40703,9.99418 -39.38476,19.4202 -60.39778,24.7901 45.2858,7.85722 91.34634,11.59103 137.35135,13.53575 0,0 1e-5,0 2e-5,1e-5 44.72904,0.8432 89.53781,-0.63237 134.171136,-4.53023 z"
           id="path3366"
           inkscape:path-effect="#path-effect4264"
           inkscape:original-d="m -60.609153,405.86455 c -80.865887,8.08659 -185.301447,9.77559 -270.720877,-4.04061 40.68444,-9.43382 82.77925,-37.34901 113.13708,-52.52793"
           inkscape:connector-curvature="0" />
        <path
           style="fill:#0e232e;fill-opacity:1;fill-rule:evenodd;stroke:none"
           d="m -262.52015,360.45988 -0.23902,9.99714 c 112.35383,1.84891 224.614834,-0.055 336.835941,0.43715 C 185.57099,371.3853 297.16552,374.171 408.10163,385.6615 297.34898,372.51992 185.67893,368.05966 74.135758,365.91079 -38.136484,363.74574 -150.42904,363.97717 -262.52015,360.45988 z"
           id="path3368"
           inkscape:path-effect="#path-effect4268"
           inkscape:original-d="m -262.63966,365.45845 c 223.550652,5.34482 450.85805,-4.22842 670.74129,20.20305"
           inkscape:connector-curvature="0" />
        <path
           style="fill:#0e232e;fill-opacity:1;fill-rule:evenodd;stroke:none"
           d="m -265.26909,357.16507 5.25886,8.50554 c 66.64798,-41.86417 140.94711,-71.65671 218.233659,-87.58723 1.2e-5,0 2.4e-5,-10e-6 3.5e-5,-10e-6 71.911929,-14.82664 145.955356,-18.12742 219.569166,-15.89969 21.37847,-1.09007 43.01306,2.65581 62.85285,10.8461 1e-5,10e-6 3e-5,10e-6 4e-5,2e-5 19.16013,7.90927 36.63087,19.69233 52.41907,33.29111 16.15694,13.91896 30.64622,29.73091 44.29943,46.18511 13.30026,16.02966 25.78994,32.73098 38.41273,49.31792 -12.38908,-16.76222 -24.64191,-33.63504 -37.73436,-49.87278 -13.43816,-16.66736 -27.74671,-32.72808 -43.8091,-46.9675 -15.69677,-13.91777 -33.18453,-26.06993 -52.55661,-34.40051 0,0 -1e-5,0 -1e-5,0 -20.05082,-8.62207 -42.02689,-12.76842 -63.8956,-11.96165 -73.74754,-3.27768 -148.135562,-1.00275 -220.857272,12.92447 -1.2e-5,10e-6 -2.3e-5,10e-6 -3.5e-5,10e-6 -78.285863,14.99804 -153.928433,44.06867 -222.192853,85.61909 z"
           id="path3370"
           inkscape:path-effect="#path-effect4272"
           inkscape:original-d="m -262.63966,361.41784 c 146.80884,-90.77 293.617673,-106.50001 440.42651,-101.01525 92.84676,-4.0723 150.12217,77.59771 197.9899,141.42135"
           inkscape:connector-curvature="0"
           sodipodi:nodetypes="ccc" />
        <path
           style="fill:#0e232e;fill-opacity:1;fill-rule:evenodd;stroke:none"
           d="m 437.5427,361.89687 5.39454,-8.42016 C 379.12781,314.52839 311.10654,280.56304 238.396,264.4432 c 71.91642,19.35719 137.56768,56.06949 199.1467,97.45367 z"
           id="path3372"
           inkscape:path-effect="#path-effect4284"
           inkscape:original-d="M 440.23997,357.68679 C 382.14246,320.46551 314.60587,283.1375 238.396,264.4432"
           inkscape:connector-curvature="0"
           sodipodi:nodetypes="cc" />
        <path
           style="fill:#0e232e;fill-opacity:1;fill-rule:evenodd;stroke:none"
           d="m 441.76981,381.79033 5.39462,-8.4201 c -2.09379,-0.87143 -3.15234,-1.12538 -3.14615,-0.82554 -0.61869,0.0384 -1.04889,0.0986 -1.29186,0.16063 -0.90712,0.1886 -1.65934,0.40764 -2.26881,0.60553 -2.22906,0.69949 -4.33479,1.48885 -6.35463,2.26124 -10e-6,0 -10e-6,0 -10e-6,0 -6.77793,2.58319 -13.4285,5.35998 -20.02726,8.14899 0,0 -1e-5,0 -1e-5,1e-5 -16.40506,7.8168 -32.89895,15.83812 -49.46555,24.06803 0,0 0,0 -10e-6,0 -4.56265,-16.21492 -11.76736,-31.56752 -20.79823,-45.82091 0,0 0,0 0,0 -9.49271,-14.32914 -20.50212,-27.52567 -32.28693,-39.87901 -22.7089,-23.80145 -48.27885,-44.39879 -73.12898,-65.72722 24.0948,22.17817 48.9584,43.67695 70.62049,68.03822 11.24514,12.64464 21.6433,26.02567 30.42713,40.35392 0,0 0,10e-6 0,10e-6 9.48197,14.77453 17.49629,30.63701 23.25608,47.26707 0,-1e-5 10e-6,-1e-5 10e-6,-1e-5 17.89108,-7.08461 36.13353,-13.75193 54.71174,-20.0077 0,0 10e-6,0 10e-6,-10e-6 6.66945,-2.54833 13.31186,-5.05612 19.98353,-7.33511 0,0 10e-6,-10e-6 10e-6,-10e-6 2.02413,-0.68955 3.97076,-1.34807 5.86605,-1.86541 0.56857,-0.14966 0.99956,-0.26946 1.29972,-0.30682 0.11222,-0.004 0.04,-0.004 -0.21752,0.0231 0.20158,0.29348 -0.64425,0.0271 -2.57344,-0.73889 z"
           id="path3374"
           inkscape:path-effect="#path-effect4288"
           inkscape:original-d="m 444.46712,377.58028 c -1.67891,-1.07565 -47.97981,17.73271 -80.8122,32.32488 C 342.59742,342.90235 284.10756,296.99447 238.396,256.36198"
           inkscape:connector-curvature="0" />
        <path
           style="fill:#0e232e;fill-opacity:1;fill-rule:evenodd;stroke:none"
           d="m 492.95444,544.20469 0,-10 c -173.74624,1.66667 -347.49247,3.33333 -521.238711,5 173.746241,1.66667 347.492471,3.33333 521.238711,5 z"
           id="path3376"
           inkscape:path-effect="#path-effect4292"
           inkscape:original-d="m 492.95444,539.20469 c -173.74624,0 -347.49247,0 -521.238711,0"
           inkscape:connector-curvature="0" />
        <path
           style="fill:#0e232e;fill-opacity:1;fill-rule:evenodd;stroke:none"
           d="m -341.53897,408.063 9.65696,2.59676 c 3.13526,-13.06467 4.03323,-26.33516 4.0151,-39.37941 -0.31965,-13.69774 -1.40213,-27.07236 -1.89708,-40.22373 -11.38221,-7.02376 -21.71673,-15.6526 -30.89105,-25.23225 0,0 0,0 0,0 -7.39551,-7.50541 -14.26812,-15.8806 -22.19377,-23.41773 -0.24202,-12.60156 -0.53391,-25.32373 -0.87561,-38.16649 -0.3417,12.84276 -0.63355,25.80613 -0.87561,38.89009 7.41325,7.85514 13.85663,16.75178 21.15704,25.25368 0,0 0,0 0,0 8.56251,9.73992 18.29453,18.35088 29.18878,25.16908 0,0 0,0 0,10e-6 -0.49495,12.76529 -0.56418,25.31082 -1.55678,37.52099 -0.68608,12.67072 -2.18344,25.21245 -5.72798,36.989 z"
           id="path3378"
           inkscape:path-effect="#path-effect4296"
           inkscape:original-d="m -336.71049,409.36138 c 6.72225,-24.99909 4.70139,-51.13993 4.70139,-77.05657 -26.27062,-16.32382 -36.59737,-34.36582 -51.71532,-49.53637 2e-5,-12.84277 0,-25.68553 0,-38.52829"
           inkscape:connector-curvature="0" />
        <path
           style="fill:#0e232e;fill-opacity:1;fill-rule:evenodd;stroke:none"
           d="m -402.03033,259.87414 -4.06138,9.13812 c 39.4183,16.69891 79.13091,32.19585 118.91311,46.96566 6.00786,-1.09364 11.52856,-3.55389 16.37099,-6.72592 4.59303,-3.20007 8.60894,-7.00446 12.27972,-10.98284 0,-10e-6 0,-10e-6 0,-10e-6 3.46629,-3.74889 6.63922,-7.65855 9.81182,-11.48147 2.44184,-3.77255 4.73262,-7.44307 7.44068,-10.4092 -25.79222,-10.4115 -53.30506,-13.6397 -80.32441,-14.21309 -10e-6,0 -10e-6,0 -2e-5,0 -27.55273,-0.25123 -54.97862,1.88349 -82.4612,2.27781 27.48258,0.39432 55.00837,-0.95214 82.40564,0.0875 0,0 10e-6,0 2e-5,0 26.75824,0.68993 53.64244,3.32307 78.05753,12.22091 -3.42289,2.0501 -6.22996,4.52392 -8.93569,6.77247 -3.30866,3.75817 -6.53282,7.51089 -9.94316,10.98638 0,0 0,1e-5 -1e-5,1e-5 -3.63114,3.6928 -7.44407,7.12335 -11.63295,9.843 -3.88483,2.71086 -8.12652,4.76608 -12.4784,5.52968 -39.02861,-15.85039 -77.59761,-32.36879 -115.44229,-50.00898 z"
           id="path3380"
           inkscape:path-effect="#path-effect4300"
           inkscape:original-d="m -404.06102,264.4432 c 37.22705,16.54535 76.3591,32.62815 117.1777,48.48732 21.05163,-3.77404 34.48221,-28.21272 44.44671,-36.36549 -49.6185,-19.08289 -107.68267,-12.12183 -161.62441,-12.12183 z"
           inkscape:connector-curvature="0" />
        <path
           style="fill:#0e232e;fill-opacity:1;fill-rule:evenodd;stroke:none"
           d="m -299.09626,384.43671 8.26344,-5.63164 c -4.52733,-5.90195 -8.40963,-12.32059 -11.28346,-19.19808 0,0 0,0 0,0 -2.63049,-6.26465 -4.43253,-12.96998 -5.61316,-19.83676 0,0 0,0 0,0 -2.63412,-15.29075 -2.5406,-31.25179 -3.39754,-47.04276 -0.85694,15.79097 -2.67869,31.54414 -1.71054,47.62922 0,0 0,0 0,10e-6 0.44256,7.27125 1.57728,14.58288 3.68908,21.73574 0,0 0,0 0,0 2.32839,7.84129 5.7879,15.3461 10.05218,22.34427 z"
           id="path3382"
           inkscape:path-effect="#path-effect4304"
           inkscape:original-d="m -294.96454,381.62089 c -19.30059,-28.3202 -16.16244,-52.86847 -16.16244,-88.89342"
           inkscape:connector-curvature="0" />
        <path
           style="fill:#0e232e;fill-opacity:1;fill-rule:evenodd;stroke:none"
           d="m -364.61112,442.05153 9.99362,0.35704 c 0.18691,-5.7959 1.03042,-11.51494 2.84365,-16.83204 1.46563,-4.3571 3.61931,-8.52536 6.26673,-12.38723 10e-6,0 10e-6,-10e-6 10e-6,-10e-6 4.15286,-6.71317 10.36144,-12.57385 16.01037,-19.63351 88.88101,-2.70241 178.1249,-4.78057 267.734059,-5.16754 1.6e-5,0 3.1e-5,0 4.7e-5,0 24.802506,25.55599 51.080428,49.74565 78.654685,72.4463 26.603948,21.69302 54.288394,42.09711 83.469549,60.08974 2e-5,1e-5 3e-5,2e-5 4e-5,3e-5 64.64317,5.98081 129.48132,7.68307 194.16876,7.8255 64.81028,0.11763 129.59069,-1.31874 194.38343,-1.66695 -64.79274,-0.34821 -129.59654,0.39174 -194.36841,-0.42228 -64.49849,-0.78637 -128.93507,-3.07818 -192.87656,-9.58161 -28.569903,-18.10179 -55.557961,-38.57272 -81.416361,-60.30428 -27.8115493,-23.14376 -54.439284,-47.79986 -79.708171,-73.83993 -1.5e-5,0 -3.1e-5,0 -4.6e-5,0 -90.896742,-0.38697 -182.143292,0.93975 -273.707602,2.91368 -6.31228,6.89508 -13.91309,13.46314 -20.25456,21.83886 -10e-6,1e-5 -2e-5,3e-5 -3e-5,4e-5 -3.16434,4.49437 -5.77078,9.43021 -7.62133,14.69632 -2.2263,6.40523 -3.3161,13.07286 -3.57188,19.66787 z"
           id="path3384"
           inkscape:path-effect="#path-effect4308"
           inkscape:original-d="m -359.61431,442.23005 c 1.01237,-28.33619 16.63099,-38.93244 28.28428,-52.52794 90.77987,-2.35261 178.49505,-4.04061 270.720877,-4.04061 49.277151,50.77763 107.998523,99.82396 161.624403,133.34014 128.0726,12.43452 258.68831,8.08122 387.89858,8.08122"
           inkscape:connector-curvature="0" />
        <path
           style="fill:#0e232e;fill-opacity:1;fill-rule:evenodd;stroke:none"
           d="m 403.10549,526.88635 9.99228,0.39302 c 0.18736,-28.05705 -8.19222,-55.19081 -20.88196,-79.38677 -11.95767,-22.82666 -27.52121,-43.40548 -44.72333,-62.2311 15.97323,19.87896 30.09926,41.28976 40.35283,64.34676 10.84208,24.41573 17.19544,50.96907 15.26018,76.87809 z"
           id="path3386"
           inkscape:path-effect="#path-effect4312"
           inkscape:original-d="M 408.10163,527.08286 C 410.27723,471.76992 377.93956,421.1831 347.49248,385.6615"
           inkscape:connector-curvature="0" />
        <path
           style="fill:#0e232e;fill-opacity:1;fill-rule:evenodd;stroke:none"
           d="m 812.85123,474.22429 6.70406,-7.41994 c -26.03641,-22.96362 -55.75361,-41.42071 -87.26624,-55.46793 -31.76787,-14.15899 -65.23639,-23.98136 -99.14753,-30.80059 -34.90241,-7.02052 -70.30831,-10.92592 -105.73835,-13.04727 -1e-5,0 -2e-5,0 -2e-5,0 -35.70271,-2.13828 -71.45895,-2.45608 -107.17969,-2.03011 35.72074,0.42597 71.44148,1.59657 106.99648,4.57937 0,0 1e-5,0 1e-5,0 35.28409,2.96067 70.42779,7.68882 104.85787,15.47785 0,0 10e-6,10e-6 2e-5,10e-6 33.44797,7.56879 66.24881,18.05044 97.05239,32.68515 30.53861,14.50709 59.07476,33.19435 83.721,56.02346 z"
           id="path3388"
           inkscape:path-effect="#path-effect4316"
           inkscape:original-d="M 816.20326,470.51432 C 713.01965,377.28596 561.79723,365.45845 420.22346,365.45845"
           inkscape:connector-curvature="0" />
        <path
           id="path3390"
           d="m -135.00624,575.65346 c -54.03822,0 -97.84743,-41.18797 -97.84743,-91.9929 0,-20.29279 6.99458,-39.03771 18.83291,-54.24959 -4.53805,10.60439 -7.05549,22.18423 -7.05549,34.31522 0,50.80493 43.80921,91.99291 97.84737,91.99291 32.453998,0 61.214476,-14.87082 79.014535,-37.74332 -14.46761,33.80708 -49.656767,57.67768 -90.791895,57.67768 z"
           style="fill:#0e232e;fill-opacity:1;stroke:#493939;stroke-width:0.41975617;stroke-linecap:round;stroke-linejoin:round;stroke-miterlimit:4;stroke-opacity:1;stroke-dasharray:none;stroke-dashoffset:0"
           inkscape:connector-curvature="0" />
        <path
           inkscape:connector-curvature="0"
           style="fill:#0e232e;fill-opacity:1;stroke:#493939;stroke-width:0.41975617;stroke-linecap:round;stroke-linejoin:round;stroke-miterlimit:4;stroke-opacity:1;stroke-dasharray:none;stroke-dashoffset:0"
           d="m 572.83769,584.37069 c 52.19692,13.98612 105.1736,-14.45974 118.32288,-63.53354 5.25216,-19.60133 3.34746,-39.51786 -4.15037,-57.27539 1.6388,11.41758 1.07338,23.25441 -2.06635,34.97205 -13.14928,49.07379 -66.12597,77.51967 -118.32282,63.53356 -31.34816,-8.39971 -55.2798,-30.20758 -66.55349,-56.90771 5.22472,36.39962 33.03667,68.56448 72.77015,79.21103 z"
           id="path3392" />
        <path
           style="fill:#0e232e;fill-opacity:1;fill-rule:evenodd;stroke:none"
           d="m 170.57116,361.59595 6.35016,7.725 c 4.33377,-3.77257 8.47197,-8.37241 11.21521,-14.03401 2.03209,-4.23723 2.85773,-9.08324 2.10018,-13.84488 -0.84635,-4.66818 -2.96146,-8.72828 -5.55381,-12.12322 -3.03729,-4.02643 -6.61689,-7.4035 -10.29934,-10.44087 0,0 0,0 0,0 -8.72333,-7.21424 -18.22833,-13.02754 -27.48297,-19.03579 -9.00766,-5.86311 -18.05743,-11.6669 -25.68228,-19.23654 6.96311,8.18247 15.6258,14.86163 24.11409,21.44154 8.75364,6.79915 17.67796,13.33963 25.37723,20.91137 0,0 1e-5,0 1e-5,0 3.23774,3.19318 6.23515,6.51207 8.48965,10.14759 0,0 0,0 1e-5,1e-5 1.85998,3.05156 3.26187,6.25187 3.45307,9.34926 0.2794,2.9993 -0.62993,6.14772 -2.19105,8.86724 -2.21421,3.93644 -5.87883,7.18597 -9.89016,10.2733 z"
           id="path3394"
           inkscape:path-effect="#path-effect4331"
           inkscape:original-d="m 173.74624,365.45845 c 40.9126,-33.63127 -26.60233,-56.85829 -52.52793,-84.85281"
           inkscape:connector-curvature="0"
           sodipodi:nodetypes="cc" />
        <path
           style="fill:#0e232e;fill-opacity:1;fill-rule:evenodd;stroke:none"
           d="m 3.9288734,283.68811 0.2234736,9.9975 c 71.614378,-3.26913 142.599213,-11.4133 214.040603,-13.07997 -71.44139,-1.66667 -143.031354,3.15855 -214.2640766,3.08247 z"
           id="path3396"
           inkscape:path-effect="#path-effect4335"
           inkscape:original-d="M 4.0406102,288.68686 C 76.210967,287.07364 147.26554,280.60564 218.19295,280.60564"
           inkscape:connector-curvature="0" />
        <path
           inkscape:connector-curvature="0"
           inkscape:original-d="M 56.568545,365.45845 C 61.261839,331.82718 52.064286,308.60016 4.0406149,280.60564"
           inkscape:path-effect="#path-effect4339"
           id="path3398"
           d="m 51.616532,364.76739 9.904026,1.38212 c 0.784574,-8.10676 0.863024,-16.46917 -0.552924,-24.70318 -1.363324,-7.82902 -4.224,-15.32498 -8.4017,-21.95155 0,0 -10e-7,0 -10e-7,0 -4.92435,-7.76487 -11.362977,-14.22977 -18.307075,-19.78913 -10e-7,0 -3e-6,0 -4e-6,0 -9.386996,-7.52377 -19.694789,-13.60247 -30.2182392,-19.10001 9.9692242,6.44829 19.6195412,13.42815 28.0367002,21.57808 1e-6,0 2e-6,0 2e-6,0 6.209697,6.02044 11.736966,12.70513 15.503634,20.15803 3.200637,6.29272 5.089691,13.18424 5.640151,20.10939 0.606718,7.35957 -0.215866,14.84971 -1.60457,22.31625 z"
           style="fill:#0e232e;fill-opacity:1;fill-rule:evenodd;stroke:none"
           sodipodi:nodetypes="cc" />
        <path
           style="fill:#0e232e;fill-opacity:1;fill-rule:evenodd;stroke:none"
           d="m 819.19178,468.40181 -9.283,3.71834 c 5.16835,12.23117 9.70626,24.65844 12.63265,37.43022 3.79259,13.73315 5.61842,28.07207 3.35116,41.94358 0,0 0,0 0,10e-6 -27.16614,5.78821 -55.64955,7.14927 -84.30359,7.9212 0,0 -1e-5,0 -1e-5,0 -28.98253,0.9867 -58.12743,1.06788 -87.01014,4.03319 28.97556,-1.84953 57.99039,-0.80332 87.05978,-0.67466 0,0 10e-6,0 10e-6,0 29.16749,-0.0827 58.81002,-1.21438 88.23123,-7.33967 0,0 0,-1e-5 0,-1e-5 3.65018,-15.60747 3.29961,-31.91533 0.93666,-47.61236 -2.58001,-13.55475 -6.78215,-26.68327 -11.61475,-39.41984 z"
           id="path3400"
           inkscape:path-effect="#path-effect4343"
           inkscape:original-d="m 814.55028,470.26098 c 8.56344,21.37895 19.32277,53.35346 13.33095,83.20301 -55.92822,11.77473 -116.35077,5.24497 -173.30238,9.98436"
           inkscape:connector-curvature="0" />
        <path
           style="fill:#0e232e;fill-opacity:1;fill-rule:evenodd;stroke:none"
           d="m 496.57032,564.38967 0.84946,-9.96386 c -95.90762,-7.33997 -192.06159,-8.40766 -288.06123,-7.58937 -96.76101,0.82343 -193.444574,3.65346 -290.170754,4.49008 96.72618,0.83662 193.478714,-0.32046 290.170064,0.52962 95.93375,0.84474 191.88044,3.56936 287.21246,12.53353 z"
           id="path3402"
           inkscape:path-effect="#path-effect4347"
           inkscape:original-d="M 496.99505,559.40774 C 308.67106,543.35217 110.88988,551.32652 -80.812204,551.32652"
           inkscape:connector-curvature="0" />
        <path
           style="fill:#0e232e;fill-opacity:1;fill-rule:evenodd;stroke:none"
           d="m -234.93617,540.13024 1.16156,-9.93232 c -83.6813,-8.08905 -167.49717,-4.78173 -251.09861,-3.11506 83.60144,1.66667 167.54725,1.71495 249.93705,13.04738 z"
           id="path3404"
           inkscape:path-effect="#path-effect4351"
           inkscape:original-d="m -234.35539,535.16408 c -82.03356,-9.59356 -166.53838,-8.08122 -250.51783,-8.08122"
           inkscape:connector-curvature="0" />
        <path
           style="fill:#0e232e;fill-opacity:1;fill-rule:evenodd;stroke:none"
           d="m 694.63271,620.96386 0.70448,-9.97516 C 499.8459,598.01834 303.94661,593.83014 108.14762,593.05457 c -196.350328,-0.77827 -392.65939,1.88416 -588.98023,2.71866 196.32084,0.8345 392.660982,-0.15884 588.9391,2.28819 195.72717,2.44068 391.45092,8.28988 586.52622,22.90244 z"
           id="path3406"
           inkscape:path-effect="#path-effect4355"
           inkscape:original-d="M 694.98495,615.97628 C 305.43158,588.46492 -88.476885,595.77323 -480.83261,595.77323"
           inkscape:connector-curvature="0" />
        <path
           style="fill:#0e232e;fill-opacity:1;fill-rule:evenodd;stroke:none"
           d="m -227.19627,556.24076 1.8442,-9.82848 c -27.1135,-4.20313 -53.14944,-16.02462 -75.59709,-32.75568 -22.2044,-16.54353 -41.20577,-37.40582 -58.66515,-59.30472 16.13433,22.89269 33.92213,44.93783 55.57648,63.19709 21.95935,18.5068 48.23802,32.44028 76.84156,38.69179 z"
           id="path3408"
           inkscape:path-effect="#path-effect4363"
           inkscape:original-d="m -226.27417,551.32652 c -59.34314,-11.13503 -99.46169,-51.80338 -133.34014,-96.97464"
           inkscape:connector-curvature="0" />
        <path
           style="fill:#0e232e;fill-opacity:1;fill-rule:evenodd;stroke:none"
           d="m -43.799603,388.78477 -1.294218,9.9159 c 8.944641,0.75224 17.827671,3.30592 25.557657,7.95487 7.193956,4.2823 13.4584689,10.36601 18.73277186,17.27455 5.52381084,7.24338 10.00054904,15.39469 13.95778914,23.81535 1e-6,0 2e-6,0 2e-6,0 4.095948,8.72177 7.620114,17.75861 11.089262,26.80949 -2.655211,-9.32219 -5.367052,-18.64024 -8.712973,-27.79852 -10e-7,0 -10e-7,-1e-5 -2e-6,-1e-5 -3.227714,-8.84212 -7.060199,-17.56975 -12.1735109,-25.70424 -4.8936794,-7.7911 -11.0871913,-14.97307 -18.7769501,-20.58735 -8.345404,-6.04001 -18.182112,-9.93383 -28.379828,-11.68004 z"
           id="path3410"
           inkscape:path-effect="#path-effect4367"
           inkscape:original-d="m -44.446712,393.74272 c 42.5563223,5.55443 56.476496,44.17058 68.690373,80.81221"
           inkscape:connector-curvature="0" />
        <path
           style="fill:#0e232e;fill-opacity:1;fill-rule:evenodd;stroke:none"
           d="m 17.100372,392.87209 -1.875862,9.82248 c 10.949964,1.61529 21.70781,5.57399 31.950043,10.72047 10e-7,0 2e-6,0 3e-6,0 10.427627,5.25038 20.320269,11.77231 29.871624,18.82692 2e-6,0 4e-6,0 6e-6,0 9.015728,6.66158 17.712711,13.84273 26.401974,21.05254 7.11598,5.90623 14.201,11.94832 21.81076,17.21982 -7.19138,-5.82935 -13.74842,-12.34191 -20.41521,-18.77821 -8.123753,-7.84631 -16.285409,-15.68976 -24.89775,-23.12127 -2e-6,-1e-5 -4e-6,-1e-5 -5e-6,-1e-5 -9.114082,-7.86783 -18.73398,-15.30232 -29.213485,-21.62647 -2e-6,0 -4e-6,0 -6e-6,0 -10.294784,-6.22314 -21.52458,-11.32813 -33.632092,-14.11627 z"
           id="path3412"
           inkscape:path-effect="#path-effect4371"
           inkscape:original-d="M 16.162441,397.78333 C 61.763233,406.492 100.41916,451.8845 125.25892,470.51432"
           inkscape:connector-curvature="0" />
        <path
           id="path3414"
           d="m 572.83769,584.37069 c 52.19692,13.98612 105.1736,-14.45974 118.32288,-63.53354 5.25216,-19.60133 3.34746,-39.51786 -4.15037,-57.27539 1.6388,11.41758 1.07338,23.25441 -2.06635,34.97205 -13.14928,49.07379 -66.12597,77.51967 -118.32282,63.53356 -31.34816,-8.39971 -55.2798,-30.20758 -66.55349,-56.90771 5.22472,36.39962 33.03667,68.56448 72.77015,79.21103 z"
           style="fill:#0e232e;fill-opacity:1;stroke:#493939;stroke-width:0.41975617;stroke-linecap:round;stroke-linejoin:round;stroke-miterlimit:4;stroke-opacity:1;stroke-dasharray:none;stroke-dashoffset:0"
           inkscape:connector-curvature="0" />
      </g>
      <g
         style="fill:#0e232e;fill-opacity:1;filter:url(#filter4188)"
         transform="matrix(0.04053745,0,0,0.04053745,26.298474,17.736161)"
         id="g4192">
        <path
           inkscape:connector-curvature="0"
           inkscape:original-d="m -197.9899,523.04225 c -64.64976,0 -129.29952,0 -193.94929,0"
           inkscape:path-effect="#path-effect4248"
           id="path4194"
           d="m -197.9899,528.04225 0,-10 c -64.64976,1.66667 -129.29953,3.33333 -193.94929,5 64.64976,1.66667 129.29953,3.33333 193.94929,5 z"
           style="fill:#0e232e;fill-opacity:1;fill-rule:evenodd;stroke:none" />
        <path
           inkscape:connector-curvature="0"
           inkscape:original-d="m -222.23356,498.79859 c -86.41212,-5.77403 -174.88366,-4.04061 -262.63966,-4.04061"
           inkscape:path-effect="#path-effect4252"
           id="path4196"
           d="m -222.56692,503.78747 0.66672,-9.97776 c -87.78265,-4.1873 -175.39731,-0.7184 -262.97302,0.94827 87.57571,1.66667 175.32725,1.53927 262.3063,9.02949 z"
           style="fill:#0e232e;fill-opacity:1;fill-rule:evenodd;stroke:none" />
        <path
           inkscape:connector-curvature="0"
           inkscape:original-d="m -242.43661,466.47371 c -96.97464,0 -193.94929,0 -290.92393,0"
           inkscape:path-effect="#path-effect4260"
           id="path4198"
           d="m -242.43661,471.47371 0,-10 c -96.97464,1.66667 -193.94929,3.33333 -290.92393,5 96.97464,1.66667 193.94929,3.33333 290.92393,5 z"
           style="fill:#0e232e;fill-opacity:1;fill-rule:evenodd;stroke:none" />
        <path
           inkscape:connector-curvature="0"
           inkscape:original-d="m -60.609153,405.86455 c -80.865887,8.08659 -185.301447,9.77559 -270.720877,-4.04061 40.68444,-9.43382 82.77925,-37.34901 113.13708,-52.52793"
           inkscape:path-effect="#path-effect4264"
           id="path4200"
           d="m -60.111634,410.83974 -0.995038,-9.95038 c -44.161788,4.98165 -88.627398,7.57242 -133.134578,7.85626 0,0 -1e-5,0 -1e-5,0 -45.71416,1.3698 -91.52624,-0.14406 -136.78466,-6.93195 10e-6,0 10e-6,0 2e-5,0 21.35602,-4.45455 41.27519,-13.41185 60.48423,-23.42901 17.63259,-9.42111 34.61037,-19.93812 52.34872,-29.08865 -17.96343,8.70037 -35.23612,18.80383 -53.04341,27.7481 -19.40703,9.99418 -39.38476,19.4202 -60.39778,24.7901 45.2858,7.85722 91.34634,11.59103 137.35135,13.53575 0,0 1e-5,0 2e-5,1e-5 44.72904,0.8432 89.53781,-0.63237 134.171136,-4.53023 z"
           style="fill:#0e232e;fill-opacity:1;fill-rule:evenodd;stroke:none" />
        <path
           inkscape:connector-curvature="0"
           inkscape:original-d="m -262.63966,365.45845 c 223.550652,5.34482 450.85805,-4.22842 670.74129,20.20305"
           inkscape:path-effect="#path-effect4268"
           id="path4202"
           d="m -262.52015,360.45988 -0.23902,9.99714 c 112.35383,1.84891 224.614834,-0.055 336.835941,0.43715 C 185.57099,371.3853 297.16552,374.171 408.10163,385.6615 297.34898,372.51992 185.67893,368.05966 74.135758,365.91079 -38.136484,363.74574 -150.42904,363.97717 -262.52015,360.45988 z"
           style="fill:#0e232e;fill-opacity:1;fill-rule:evenodd;stroke:none" />
        <path
           sodipodi:nodetypes="ccc"
           inkscape:connector-curvature="0"
           inkscape:original-d="m -262.63966,361.41784 c 146.80884,-90.77 293.617673,-106.50001 440.42651,-101.01525 92.84676,-4.0723 150.12217,77.59771 197.9899,141.42135"
           inkscape:path-effect="#path-effect4272"
           id="path4204"
           d="m -265.26909,357.16507 5.25886,8.50554 c 66.64798,-41.86417 140.94711,-71.65671 218.233659,-87.58723 1.2e-5,0 2.4e-5,-10e-6 3.5e-5,-10e-6 71.911929,-14.82664 145.955356,-18.12742 219.569166,-15.89969 21.37847,-1.09007 43.01306,2.65581 62.85285,10.8461 1e-5,10e-6 3e-5,10e-6 4e-5,2e-5 19.16013,7.90927 36.63087,19.69233 52.41907,33.29111 16.15694,13.91896 30.64622,29.73091 44.29943,46.18511 13.30026,16.02966 25.78994,32.73098 38.41273,49.31792 -12.38908,-16.76222 -24.64191,-33.63504 -37.73436,-49.87278 -13.43816,-16.66736 -27.74671,-32.72808 -43.8091,-46.9675 -15.69677,-13.91777 -33.18453,-26.06993 -52.55661,-34.40051 0,0 -1e-5,0 -1e-5,0 -20.05082,-8.62207 -42.02689,-12.76842 -63.8956,-11.96165 -73.74754,-3.27768 -148.135562,-1.00275 -220.857272,12.92447 -1.2e-5,10e-6 -2.3e-5,10e-6 -3.5e-5,10e-6 -78.285863,14.99804 -153.928433,44.06867 -222.192853,85.61909 z"
           style="fill:#0e232e;fill-opacity:1;fill-rule:evenodd;stroke:none" />
        <path
           sodipodi:nodetypes="cc"
           inkscape:connector-curvature="0"
           inkscape:original-d="M 440.23997,357.68679 C 382.14246,320.46551 314.60587,283.1375 238.396,264.4432"
           inkscape:path-effect="#path-effect4284"
           id="path4206"
           d="m 437.5427,361.89687 5.39454,-8.42016 C 379.12781,314.52839 311.10654,280.56304 238.396,264.4432 c 71.91642,19.35719 137.56768,56.06949 199.1467,97.45367 z"
           style="fill:#0e232e;fill-opacity:1;fill-rule:evenodd;stroke:none" />
        <path
           inkscape:connector-curvature="0"
           inkscape:original-d="m 444.46712,377.58028 c -1.67891,-1.07565 -47.97981,17.73271 -80.8122,32.32488 C 342.59742,342.90235 284.10756,296.99447 238.396,256.36198"
           inkscape:path-effect="#path-effect4288"
           id="path4208"
           d="m 441.76981,381.79033 5.39462,-8.4201 c -2.09379,-0.87143 -3.15234,-1.12538 -3.14615,-0.82554 -0.61869,0.0384 -1.04889,0.0986 -1.29186,0.16063 -0.90712,0.1886 -1.65934,0.40764 -2.26881,0.60553 -2.22906,0.69949 -4.33479,1.48885 -6.35463,2.26124 -10e-6,0 -10e-6,0 -10e-6,0 -6.77793,2.58319 -13.4285,5.35998 -20.02726,8.14899 0,0 -1e-5,0 -1e-5,1e-5 -16.40506,7.8168 -32.89895,15.83812 -49.46555,24.06803 0,0 0,0 -10e-6,0 -4.56265,-16.21492 -11.76736,-31.56752 -20.79823,-45.82091 0,0 0,0 0,0 -9.49271,-14.32914 -20.50212,-27.52567 -32.28693,-39.87901 -22.7089,-23.80145 -48.27885,-44.39879 -73.12898,-65.72722 24.0948,22.17817 48.9584,43.67695 70.62049,68.03822 11.24514,12.64464 21.6433,26.02567 30.42713,40.35392 0,0 0,10e-6 0,10e-6 9.48197,14.77453 17.49629,30.63701 23.25608,47.26707 0,-1e-5 10e-6,-1e-5 10e-6,-1e-5 17.89108,-7.08461 36.13353,-13.75193 54.71174,-20.0077 0,0 10e-6,0 10e-6,-10e-6 6.66945,-2.54833 13.31186,-5.05612 19.98353,-7.33511 0,0 10e-6,-10e-6 10e-6,-10e-6 2.02413,-0.68955 3.97076,-1.34807 5.86605,-1.86541 0.56857,-0.14966 0.99956,-0.26946 1.29972,-0.30682 0.11222,-0.004 0.04,-0.004 -0.21752,0.0231 0.20158,0.29348 -0.64425,0.0271 -2.57344,-0.73889 z"
           style="fill:#0e232e;fill-opacity:1;fill-rule:evenodd;stroke:none" />
        <path
           inkscape:connector-curvature="0"
           inkscape:original-d="m 492.95444,539.20469 c -173.74624,0 -347.49247,0 -521.238711,0"
           inkscape:path-effect="#path-effect4292"
           id="path4210"
           d="m 492.95444,544.20469 0,-10 c -173.74624,1.66667 -347.49247,3.33333 -521.238711,5 173.746241,1.66667 347.492471,3.33333 521.238711,5 z"
           style="fill:#0e232e;fill-opacity:1;fill-rule:evenodd;stroke:none" />
        <path
           inkscape:connector-curvature="0"
           inkscape:original-d="m -336.71049,409.36138 c 6.72225,-24.99909 4.70139,-51.13993 4.70139,-77.05657 -26.27062,-16.32382 -36.59737,-34.36582 -51.71532,-49.53637 2e-5,-12.84277 0,-25.68553 0,-38.52829"
           inkscape:path-effect="#path-effect4296"
           id="path4212"
           d="m -341.53897,408.063 9.65696,2.59676 c 3.13526,-13.06467 4.03323,-26.33516 4.0151,-39.37941 -0.31965,-13.69774 -1.40213,-27.07236 -1.89708,-40.22373 -11.38221,-7.02376 -21.71673,-15.6526 -30.89105,-25.23225 0,0 0,0 0,0 -7.39551,-7.50541 -14.26812,-15.8806 -22.19377,-23.41773 -0.24202,-12.60156 -0.53391,-25.32373 -0.87561,-38.16649 -0.3417,12.84276 -0.63355,25.80613 -0.87561,38.89009 7.41325,7.85514 13.85663,16.75178 21.15704,25.25368 0,0 0,0 0,0 8.56251,9.73992 18.29453,18.35088 29.18878,25.16908 0,0 0,0 0,10e-6 -0.49495,12.76529 -0.56418,25.31082 -1.55678,37.52099 -0.68608,12.67072 -2.18344,25.21245 -5.72798,36.989 z"
           style="fill:#0e232e;fill-opacity:1;fill-rule:evenodd;stroke:none" />
        <path
           inkscape:connector-curvature="0"
           inkscape:original-d="m -404.06102,264.4432 c 37.22705,16.54535 76.3591,32.62815 117.1777,48.48732 21.05163,-3.77404 34.48221,-28.21272 44.44671,-36.36549 -49.6185,-19.08289 -107.68267,-12.12183 -161.62441,-12.12183 z"
           inkscape:path-effect="#path-effect4300"
           id="path4214"
           d="m -402.03033,259.87414 -4.06138,9.13812 c 39.4183,16.69891 79.13091,32.19585 118.91311,46.96566 6.00786,-1.09364 11.52856,-3.55389 16.37099,-6.72592 4.59303,-3.20007 8.60894,-7.00446 12.27972,-10.98284 0,-10e-6 0,-10e-6 0,-10e-6 3.46629,-3.74889 6.63922,-7.65855 9.81182,-11.48147 2.44184,-3.77255 4.73262,-7.44307 7.44068,-10.4092 -25.79222,-10.4115 -53.30506,-13.6397 -80.32441,-14.21309 -10e-6,0 -10e-6,0 -2e-5,0 -27.55273,-0.25123 -54.97862,1.88349 -82.4612,2.27781 27.48258,0.39432 55.00837,-0.95214 82.40564,0.0875 0,0 10e-6,0 2e-5,0 26.75824,0.68993 53.64244,3.32307 78.05753,12.22091 -3.42289,2.0501 -6.22996,4.52392 -8.93569,6.77247 -3.30866,3.75817 -6.53282,7.51089 -9.94316,10.98638 0,0 0,1e-5 -1e-5,1e-5 -3.63114,3.6928 -7.44407,7.12335 -11.63295,9.843 -3.88483,2.71086 -8.12652,4.76608 -12.4784,5.52968 -39.02861,-15.85039 -77.59761,-32.36879 -115.44229,-50.00898 z"
           style="fill:#0e232e;fill-opacity:1;fill-rule:evenodd;stroke:none" />
        <path
           inkscape:connector-curvature="0"
           inkscape:original-d="m -294.96454,381.62089 c -19.30059,-28.3202 -16.16244,-52.86847 -16.16244,-88.89342"
           inkscape:path-effect="#path-effect4304"
           id="path4216"
           d="m -299.09626,384.43671 8.26344,-5.63164 c -4.52733,-5.90195 -8.40963,-12.32059 -11.28346,-19.19808 0,0 0,0 0,0 -2.63049,-6.26465 -4.43253,-12.96998 -5.61316,-19.83676 0,0 0,0 0,0 -2.63412,-15.29075 -2.5406,-31.25179 -3.39754,-47.04276 -0.85694,15.79097 -2.67869,31.54414 -1.71054,47.62922 0,0 0,0 0,10e-6 0.44256,7.27125 1.57728,14.58288 3.68908,21.73574 0,0 0,0 0,0 2.32839,7.84129 5.7879,15.3461 10.05218,22.34427 z"
           style="fill:#0e232e;fill-opacity:1;fill-rule:evenodd;stroke:none" />
        <path
           inkscape:connector-curvature="0"
           inkscape:original-d="m -359.61431,442.23005 c 1.01237,-28.33619 16.63099,-38.93244 28.28428,-52.52794 90.77987,-2.35261 178.49505,-4.04061 270.720877,-4.04061 49.277151,50.77763 107.998523,99.82396 161.624403,133.34014 128.0726,12.43452 258.68831,8.08122 387.89858,8.08122"
           inkscape:path-effect="#path-effect4308"
           id="path4218"
           d="m -364.61112,442.05153 9.99362,0.35704 c 0.18691,-5.7959 1.03042,-11.51494 2.84365,-16.83204 1.46563,-4.3571 3.61931,-8.52536 6.26673,-12.38723 10e-6,0 10e-6,-10e-6 10e-6,-10e-6 4.15286,-6.71317 10.36144,-12.57385 16.01037,-19.63351 88.88101,-2.70241 178.1249,-4.78057 267.734059,-5.16754 1.6e-5,0 3.1e-5,0 4.7e-5,0 24.802506,25.55599 51.080428,49.74565 78.654685,72.4463 26.603948,21.69302 54.288394,42.09711 83.469549,60.08974 2e-5,1e-5 3e-5,2e-5 4e-5,3e-5 64.64317,5.98081 129.48132,7.68307 194.16876,7.8255 64.81028,0.11763 129.59069,-1.31874 194.38343,-1.66695 -64.79274,-0.34821 -129.59654,0.39174 -194.36841,-0.42228 -64.49849,-0.78637 -128.93507,-3.07818 -192.87656,-9.58161 -28.569903,-18.10179 -55.557961,-38.57272 -81.416361,-60.30428 -27.8115493,-23.14376 -54.439284,-47.79986 -79.708171,-73.83993 -1.5e-5,0 -3.1e-5,0 -4.6e-5,0 -90.896742,-0.38697 -182.143292,0.93975 -273.707602,2.91368 -6.31228,6.89508 -13.91309,13.46314 -20.25456,21.83886 -10e-6,1e-5 -2e-5,3e-5 -3e-5,4e-5 -3.16434,4.49437 -5.77078,9.43021 -7.62133,14.69632 -2.2263,6.40523 -3.3161,13.07286 -3.57188,19.66787 z"
           style="fill:#0e232e;fill-opacity:1;fill-rule:evenodd;stroke:none" />
        <path
           inkscape:connector-curvature="0"
           inkscape:original-d="M 408.10163,527.08286 C 410.27723,471.76992 377.93956,421.1831 347.49248,385.6615"
           inkscape:path-effect="#path-effect4312"
           id="path4220"
           d="m 403.10549,526.88635 9.99228,0.39302 c 0.18736,-28.05705 -8.19222,-55.19081 -20.88196,-79.38677 -11.95767,-22.82666 -27.52121,-43.40548 -44.72333,-62.2311 15.97323,19.87896 30.09926,41.28976 40.35283,64.34676 10.84208,24.41573 17.19544,50.96907 15.26018,76.87809 z"
           style="fill:#0e232e;fill-opacity:1;fill-rule:evenodd;stroke:none" />
        <path
           inkscape:connector-curvature="0"
           inkscape:original-d="M 816.20326,470.51432 C 713.01965,377.28596 561.79723,365.45845 420.22346,365.45845"
           inkscape:path-effect="#path-effect4316"
           id="path4222"
           d="m 812.85123,474.22429 6.70406,-7.41994 c -26.03641,-22.96362 -55.75361,-41.42071 -87.26624,-55.46793 -31.76787,-14.15899 -65.23639,-23.98136 -99.14753,-30.80059 -34.90241,-7.02052 -70.30831,-10.92592 -105.73835,-13.04727 -1e-5,0 -2e-5,0 -2e-5,0 -35.70271,-2.13828 -71.45895,-2.45608 -107.17969,-2.03011 35.72074,0.42597 71.44148,1.59657 106.99648,4.57937 0,0 1e-5,0 1e-5,0 35.28409,2.96067 70.42779,7.68882 104.85787,15.47785 0,0 10e-6,10e-6 2e-5,10e-6 33.44797,7.56879 66.24881,18.05044 97.05239,32.68515 30.53861,14.50709 59.07476,33.19435 83.721,56.02346 z"
           style="fill:#0e232e;fill-opacity:1;fill-rule:evenodd;stroke:none" />
        <path
           inkscape:connector-curvature="0"
           style="fill:#0e232e;fill-opacity:1;stroke:#493939;stroke-width:0.41975617;stroke-linecap:round;stroke-linejoin:round;stroke-miterlimit:4;stroke-opacity:1;stroke-dasharray:none;stroke-dashoffset:0"
           d="m -135.00624,575.65346 c -54.03822,0 -97.84743,-41.18797 -97.84743,-91.9929 0,-20.29279 6.99458,-39.03771 18.83291,-54.24959 -4.53805,10.60439 -7.05549,22.18423 -7.05549,34.31522 0,50.80493 43.80921,91.99291 97.84737,91.99291 32.453998,0 61.214476,-14.87082 79.014535,-37.74332 -14.46761,33.80708 -49.656767,57.67768 -90.791895,57.67768 z"
           id="path4224" />
        <path
           id="path4226"
           d="m 572.83769,584.37069 c 52.19692,13.98612 105.1736,-14.45974 118.32288,-63.53354 5.25216,-19.60133 3.34746,-39.51786 -4.15037,-57.27539 1.6388,11.41758 1.07338,23.25441 -2.06635,34.97205 -13.14928,49.07379 -66.12597,77.51967 -118.32282,63.53356 -31.34816,-8.39971 -55.2798,-30.20758 -66.55349,-56.90771 5.22472,36.39962 33.03667,68.56448 72.77015,79.21103 z"
           style="fill:#0e232e;fill-opacity:1;stroke:#493939;stroke-width:0.41975617;stroke-linecap:round;stroke-linejoin:round;stroke-miterlimit:4;stroke-opacity:1;stroke-dasharray:none;stroke-dashoffset:0"
           inkscape:connector-curvature="0" />
        <path
           sodipodi:nodetypes="cc"
           inkscape:connector-curvature="0"
           inkscape:original-d="m 173.74624,365.45845 c 40.9126,-33.63127 -26.60233,-56.85829 -52.52793,-84.85281"
           inkscape:path-effect="#path-effect4331"
           id="path4228"
           d="m 170.57116,361.59595 6.35016,7.725 c 4.33377,-3.77257 8.47197,-8.37241 11.21521,-14.03401 2.03209,-4.23723 2.85773,-9.08324 2.10018,-13.84488 -0.84635,-4.66818 -2.96146,-8.72828 -5.55381,-12.12322 -3.03729,-4.02643 -6.61689,-7.4035 -10.29934,-10.44087 0,0 0,0 0,0 -8.72333,-7.21424 -18.22833,-13.02754 -27.48297,-19.03579 -9.00766,-5.86311 -18.05743,-11.6669 -25.68228,-19.23654 6.96311,8.18247 15.6258,14.86163 24.11409,21.44154 8.75364,6.79915 17.67796,13.33963 25.37723,20.91137 0,0 1e-5,0 1e-5,0 3.23774,3.19318 6.23515,6.51207 8.48965,10.14759 0,0 0,0 1e-5,1e-5 1.85998,3.05156 3.26187,6.25187 3.45307,9.34926 0.2794,2.9993 -0.62993,6.14772 -2.19105,8.86724 -2.21421,3.93644 -5.87883,7.18597 -9.89016,10.2733 z"
           style="fill:#0e232e;fill-opacity:1;fill-rule:evenodd;stroke:none" />
        <path
           inkscape:connector-curvature="0"
           inkscape:original-d="M 4.0406102,288.68686 C 76.210967,287.07364 147.26554,280.60564 218.19295,280.60564"
           inkscape:path-effect="#path-effect4335"
           id="path4230"
           d="m 3.9288734,283.68811 0.2234736,9.9975 c 71.614378,-3.26913 142.599213,-11.4133 214.040603,-13.07997 -71.44139,-1.66667 -143.031354,3.15855 -214.2640766,3.08247 z"
           style="fill:#0e232e;fill-opacity:1;fill-rule:evenodd;stroke:none" />
        <path
           sodipodi:nodetypes="cc"
           style="fill:#0e232e;fill-opacity:1;fill-rule:evenodd;stroke:none"
           d="m 51.616532,364.76739 9.904026,1.38212 c 0.784574,-8.10676 0.863024,-16.46917 -0.552924,-24.70318 -1.363324,-7.82902 -4.224,-15.32498 -8.4017,-21.95155 0,0 -10e-7,0 -10e-7,0 -4.92435,-7.76487 -11.362977,-14.22977 -18.307075,-19.78913 -10e-7,0 -3e-6,0 -4e-6,0 -9.386996,-7.52377 -19.694789,-13.60247 -30.2182392,-19.10001 9.9692242,6.44829 19.6195412,13.42815 28.0367002,21.57808 1e-6,0 2e-6,0 2e-6,0 6.209697,6.02044 11.736966,12.70513 15.503634,20.15803 3.200637,6.29272 5.089691,13.18424 5.640151,20.10939 0.606718,7.35957 -0.215866,14.84971 -1.60457,22.31625 z"
           id="path4232"
           inkscape:path-effect="#path-effect4339"
           inkscape:original-d="M 56.568545,365.45845 C 61.261839,331.82718 52.064286,308.60016 4.0406149,280.60564"
           inkscape:connector-curvature="0" />
        <path
           inkscape:connector-curvature="0"
           inkscape:original-d="m 814.55028,470.26098 c 8.56344,21.37895 19.32277,53.35346 13.33095,83.20301 -55.92822,11.77473 -116.35077,5.24497 -173.30238,9.98436"
           inkscape:path-effect="#path-effect4343"
           id="path4234"
           d="m 819.19178,468.40181 -9.283,3.71834 c 5.16835,12.23117 9.70626,24.65844 12.63265,37.43022 3.79259,13.73315 5.61842,28.07207 3.35116,41.94358 0,0 0,0 0,10e-6 -27.16614,5.78821 -55.64955,7.14927 -84.30359,7.9212 0,0 -1e-5,0 -1e-5,0 -28.98253,0.9867 -58.12743,1.06788 -87.01014,4.03319 28.97556,-1.84953 57.99039,-0.80332 87.05978,-0.67466 0,0 10e-6,0 10e-6,0 29.16749,-0.0827 58.81002,-1.21438 88.23123,-7.33967 0,0 0,-1e-5 0,-1e-5 3.65018,-15.60747 3.29961,-31.91533 0.93666,-47.61236 -2.58001,-13.55475 -6.78215,-26.68327 -11.61475,-39.41984 z"
           style="fill:#0e232e;fill-opacity:1;fill-rule:evenodd;stroke:none" />
        <path
           inkscape:connector-curvature="0"
           inkscape:original-d="M 496.99505,559.40774 C 308.67106,543.35217 110.88988,551.32652 -80.812204,551.32652"
           inkscape:path-effect="#path-effect4347"
           id="path4236"
           d="m 496.57032,564.38967 0.84946,-9.96386 c -95.90762,-7.33997 -192.06159,-8.40766 -288.06123,-7.58937 -96.76101,0.82343 -193.444574,3.65346 -290.170754,4.49008 96.72618,0.83662 193.478714,-0.32046 290.170064,0.52962 95.93375,0.84474 191.88044,3.56936 287.21246,12.53353 z"
           style="fill:#0e232e;fill-opacity:1;fill-rule:evenodd;stroke:none" />
        <path
           inkscape:connector-curvature="0"
           inkscape:original-d="m -234.35539,535.16408 c -82.03356,-9.59356 -166.53838,-8.08122 -250.51783,-8.08122"
           inkscape:path-effect="#path-effect4351"
           id="path4238"
           d="m -234.93617,540.13024 1.16156,-9.93232 c -83.6813,-8.08905 -167.49717,-4.78173 -251.09861,-3.11506 83.60144,1.66667 167.54725,1.71495 249.93705,13.04738 z"
           style="fill:#0e232e;fill-opacity:1;fill-rule:evenodd;stroke:none" />
        <path
           inkscape:connector-curvature="0"
           inkscape:original-d="M 694.98495,615.97628 C 305.43158,588.46492 -88.476885,595.77323 -480.83261,595.77323"
           inkscape:path-effect="#path-effect4355"
           id="path4240"
           d="m 694.63271,620.96386 0.70448,-9.97516 C 499.8459,598.01834 303.94661,593.83014 108.14762,593.05457 c -196.350328,-0.77827 -392.65939,1.88416 -588.98023,2.71866 196.32084,0.8345 392.660982,-0.15884 588.9391,2.28819 195.72717,2.44068 391.45092,8.28988 586.52622,22.90244 z"
           style="fill:#0e232e;fill-opacity:1;fill-rule:evenodd;stroke:none" />
        <path
           inkscape:connector-curvature="0"
           inkscape:original-d="m -226.27417,551.32652 c -59.34314,-11.13503 -99.46169,-51.80338 -133.34014,-96.97464"
           inkscape:path-effect="#path-effect4363"
           id="path4242"
           d="m -227.19627,556.24076 1.8442,-9.82848 c -27.1135,-4.20313 -53.14944,-16.02462 -75.59709,-32.75568 -22.2044,-16.54353 -41.20577,-37.40582 -58.66515,-59.30472 16.13433,22.89269 33.92213,44.93783 55.57648,63.19709 21.95935,18.5068 48.23802,32.44028 76.84156,38.69179 z"
           style="fill:#0e232e;fill-opacity:1;fill-rule:evenodd;stroke:none" />
        <path
           inkscape:connector-curvature="0"
           inkscape:original-d="m -44.446712,393.74272 c 42.5563223,5.55443 56.476496,44.17058 68.690373,80.81221"
           inkscape:path-effect="#path-effect4367"
           id="path4244"
           d="m -43.799603,388.78477 -1.294218,9.9159 c 8.944641,0.75224 17.827671,3.30592 25.557657,7.95487 7.193956,4.2823 13.4584689,10.36601 18.73277186,17.27455 5.52381084,7.24338 10.00054904,15.39469 13.95778914,23.81535 1e-6,0 2e-6,0 2e-6,0 4.095948,8.72177 7.620114,17.75861 11.089262,26.80949 -2.655211,-9.32219 -5.367052,-18.64024 -8.712973,-27.79852 -10e-7,0 -10e-7,-1e-5 -2e-6,-1e-5 -3.227714,-8.84212 -7.060199,-17.56975 -12.1735109,-25.70424 -4.8936794,-7.7911 -11.0871913,-14.97307 -18.7769501,-20.58735 -8.345404,-6.04001 -18.182112,-9.93383 -28.379828,-11.68004 z"
           style="fill:#0e232e;fill-opacity:1;fill-rule:evenodd;stroke:none" />
        <path
           inkscape:connector-curvature="0"
           inkscape:original-d="M 16.162441,397.78333 C 61.763233,406.492 100.41916,451.8845 125.25892,470.51432"
           inkscape:path-effect="#path-effect4371"
           id="path4246"
           d="m 17.100372,392.87209 -1.875862,9.82248 c 10.949964,1.61529 21.70781,5.57399 31.950043,10.72047 10e-7,0 2e-6,0 3e-6,0 10.427627,5.25038 20.320269,11.77231 29.871624,18.82692 2e-6,0 4e-6,0 6e-6,0 9.015728,6.66158 17.712711,13.84273 26.401974,21.05254 7.11598,5.90623 14.201,11.94832 21.81076,17.21982 -7.19138,-5.82935 -13.74842,-12.34191 -20.41521,-18.77821 -8.123753,-7.84631 -16.285409,-15.68976 -24.89775,-23.12127 -2e-6,-1e-5 -4e-6,-1e-5 -5e-6,-1e-5 -9.114082,-7.86783 -18.73398,-15.30232 -29.213485,-21.62647 -2e-6,0 -4e-6,0 -6e-6,0 -10.294784,-6.22314 -21.52458,-11.32813 -33.632092,-14.11627 z"
           style="fill:#0e232e;fill-opacity:1;fill-rule:evenodd;stroke:none" />
        <path
           inkscape:connector-curvature="0"
           style="fill:#0e232e;fill-opacity:1;stroke:#493939;stroke-width:0.41975617;stroke-linecap:round;stroke-linejoin:round;stroke-miterlimit:4;stroke-opacity:1;stroke-dasharray:none;stroke-dashoffset:0"
           d="m 572.83769,584.37069 c 52.19692,13.98612 105.1736,-14.45974 118.32288,-63.53354 5.25216,-19.60133 3.34746,-39.51786 -4.15037,-57.27539 1.6388,11.41758 1.07338,23.25441 -2.06635,34.97205 -13.14928,49.07379 -66.12597,77.51967 -118.32282,63.53356 -31.34816,-8.39971 -55.2798,-30.20758 -66.55349,-56.90771 5.22472,36.39962 33.03667,68.56448 72.77015,79.21103 z"
           id="path4248" />
      </g>
    </g>
  </g>
</svg>
